<svg width="683" height="683" viewBox="0 0 683 683" fill="none" xmlns="http://www.w3.org/2000/svg">
<g clip-path="url(#clip0_3_2)">
<path d="M681.26 681.649V1.06653" stroke="white" stroke-width="1.99975" stroke-linecap="round" stroke-linejoin="round"/>
<path d="M1.07751 1.06653V681.649" stroke="white" stroke-width="1.99975" stroke-linecap="round" stroke-linejoin="round"/>
<path d="M1.07751 681.649V1.06653" stroke="white" stroke-width="1.99975" stroke-linecap="round" stroke-linejoin="round"/>
<path d="M681.26 1.06653V681.649" stroke="white" stroke-width="1.99975" stroke-linecap="round" stroke-linejoin="round"/>
<path d="M1.07751 681.649H681.261" stroke="white" stroke-width="1.99975" stroke-linecap="round" stroke-linejoin="round"/>
<path d="M1.07751 1.06653H681.261" stroke="white" stroke-width="1.99975" stroke-linecap="round" stroke-linejoin="round"/>
<path d="M1.07751 511.404H3.87717" stroke="white" stroke-width="1.33317" stroke-linecap="round" stroke-linejoin="round"/>
<path d="M6.67682 511.404H8.80989" stroke="white" stroke-width="1.33317" stroke-linecap="round" stroke-linejoin="round" stroke-dasharray="0.76 2.85"/>
<path d="M10.2764 511.404H676.994" stroke="white" stroke-width="1.33317" stroke-linecap="round" stroke-linejoin="round" stroke-dasharray="5.69 2.85 0.76 2.85"/>
<path d="M678.461 511.404H681.261" stroke="white" stroke-width="1.33317" stroke-linecap="round" stroke-linejoin="round"/>
<path d="M1.07751 341.291H3.87717" stroke="white" stroke-width="1.33317" stroke-linecap="round" stroke-linejoin="round"/>
<path d="M6.67682 341.291H8.80989" stroke="white" stroke-width="1.33317" stroke-linecap="round" stroke-linejoin="round" stroke-dasharray="0.76 2.85"/>
<path d="M10.2764 341.291H676.994" stroke="white" stroke-width="1.33317" stroke-linecap="round" stroke-linejoin="round" stroke-dasharray="5.69 2.85 0.76 2.85"/>
<path d="M678.461 341.291H681.261" stroke="white" stroke-width="1.33317" stroke-linecap="round" stroke-linejoin="round"/>
<path d="M681.261 171.179H678.461" stroke="white" stroke-width="1.33317" stroke-linecap="round" stroke-linejoin="round"/>
<path d="M675.528 171.179H673.395" stroke="white" stroke-width="1.33317" stroke-linecap="round" stroke-linejoin="round" stroke-dasharray="0.76 2.85"/>
<path d="M671.928 171.179H5.21033" stroke="white" stroke-width="1.33317" stroke-linecap="round" stroke-linejoin="round" stroke-dasharray="5.69 2.85 0.76 2.85"/>
<path d="M3.87717 171.179H1.07751" stroke="white" stroke-width="1.33317" stroke-linecap="round" stroke-linejoin="round"/>
<path d="M171.057 681.649V678.716" stroke="white" stroke-width="1.33317" stroke-linecap="round" stroke-linejoin="round"/>
<path d="M171.057 675.917V673.784" stroke="white" stroke-width="1.33317" stroke-linecap="round" stroke-linejoin="round" stroke-dasharray="0.76 2.85"/>
<path d="M171.057 672.317V5.19934" stroke="white" stroke-width="1.33317" stroke-linecap="round" stroke-linejoin="round" stroke-dasharray="5.7 2.85 0.76 2.85"/>
<path d="M171.057 3.86618V1.06653" stroke="white" stroke-width="1.33317" stroke-linecap="round" stroke-linejoin="round"/>
<path d="M341.169 1.06653V3.86618" stroke="white" stroke-width="1.33317" stroke-linecap="round" stroke-linejoin="round"/>
<path d="M341.169 6.66583V8.93222" stroke="white" stroke-width="1.33317" stroke-linecap="round" stroke-linejoin="round" stroke-dasharray="0.76 2.85"/>
<path d="M341.169 10.2654V677.383" stroke="white" stroke-width="1.33317" stroke-linecap="round" stroke-linejoin="round" stroke-dasharray="5.7 2.85 0.76 2.85"/>
<path d="M341.169 678.716V681.649" stroke="white" stroke-width="1.33317" stroke-linecap="round" stroke-linejoin="round"/>
<path d="M508 579L508.014 576.373" stroke="white" stroke-width="1.33317" stroke-linecap="round" stroke-linejoin="round"/>
<path d="M508.028 573.866L508.038 571.955" stroke="white" stroke-width="1.33317" stroke-linecap="round" stroke-linejoin="round" stroke-dasharray="0.76 2.85"/>
<path d="M508.046 570.641L511.128 4.76816" stroke="white" stroke-width="1.33317" stroke-linecap="round" stroke-linejoin="round" stroke-dasharray="5.71 2.85 0.76 2.85"/>
<path d="M511.134 3.57409L511.148 1.06653" stroke="white" stroke-width="1.33317" stroke-linecap="round" stroke-linejoin="round"/>
<path d="M508 617L508 617.3" stroke="white" stroke-width="1.33317" stroke-linecap="round" stroke-linejoin="round"/>
<path d="M508 617.586L508 617.805" stroke="white" stroke-width="1.33317" stroke-linecap="round" stroke-linejoin="round" stroke-dasharray="0.76 2.85"/>
<path d="M508 617.955V682.577" stroke="white" stroke-width="1.33317" stroke-linecap="round" stroke-linejoin="round" stroke-dasharray="5.71 2.85 0.76 2.85"/>
<path d="M508 682.714L508 683" stroke="white" stroke-width="1.33317" stroke-linecap="round" stroke-linejoin="round"/>
<path d="M550.6 624H552.7V628.8C552.8 628.6 553 628.4 553.2 628.2C553.4 628 553.6 627.9 553.9 627.7C554.1 627.6 554.4 627.5 554.7 627.4C555 627.4 555.2 627.3 555.5 627.4C556.2 627.4 556.8 627.5 557.4 627.8C557.9 628 558.4 628.4 558.8 628.9C559.2 629.4 559.4 629.9 559.6 630.5C559.8 631.1 559.9 631.8 559.9 632.4C559.9 633 559.9 633.6 559.7 634.2C559.5 634.8 559.3 635.3 559 635.8C558.3 636.8 557.2 637.3 556 637.3C555.7 637.3 555.4 637.3 555 637.3C554.7 637.3 554.4 637.2 554.1 637.1C553.8 637 553.6 636.8 553.3 636.6C553.1 636.4 552.9 636.1 552.7 635.8V637.1H550.7V624.2L550.6 624ZM557.8 632.2C557.8 631.8 557.8 631.4 557.6 631C557.5 630.6 557.3 630.3 557.1 630C556.9 629.7 556.6 629.4 556.3 629.3C556 629.1 555.6 629 555.2 629C554.4 629 553.7 629.3 553.2 629.9C552.7 630.6 552.5 631.5 552.5 632.3C552.5 632.7 552.5 633.2 552.7 633.6C552.8 634 553 634.3 553.2 634.6C553.4 634.9 553.7 635.1 554 635.3C554.3 635.5 554.7 635.6 555.1 635.5C555.5 635.5 555.9 635.5 556.3 635.2C556.6 635 556.9 634.8 557.1 634.5C557.3 634.2 557.5 633.8 557.6 633.5C557.6 633.1 557.7 632.7 557.7 632.3L557.8 632.2Z" fill="white"/>
<path d="M560.5 625.6H562.7L565.1 632.6L567.5 625.6H569.6L566 635.4C565.8 635.8 565.7 636.2 565.5 636.6C565.3 637 565.1 637.3 564.9 637.6C564.7 637.9 564.4 638.1 564 638.3C563.6 638.5 563.1 638.6 562.7 638.6C562.2 638.6 561.7 638.6 561.3 638.5V636.8H561.8C562 636.8 562.1 636.8 562.3 636.8C562.5 636.8 562.7 636.8 562.9 636.8C563 636.8 563.2 636.7 563.3 636.5C563.4 636.4 563.5 636.2 563.6 636.1C563.6 635.9 563.7 635.7 563.8 635.6L564 634.9L560.5 625.7V625.6Z" fill="white"/>
<path d="M583.1 629.8C583.1 630.3 583.1 630.9 583 631.4C583 631.9 582.7 632.4 582.4 632.8C582.1 633.2 581.6 633.6 581.1 633.8C580.4 634.1 579.6 634.2 578.9 634.2C578.3 634.2 577.7 634.2 577.2 633.9C576.7 633.7 576.3 633.4 576 633C575.7 632.6 575.4 632.2 575.3 631.7C575.2 631.2 575.1 630.6 575.1 630.1V629.4H577.3V630.1C577.3 630.7 577.3 631.3 577.7 631.8C578 632.2 578.6 632.5 579.1 632.4C579.4 632.4 579.7 632.4 580 632.2C580.2 632.1 580.4 631.9 580.6 631.7C580.7 631.5 580.8 631.2 580.9 630.9C580.9 630.5 580.9 630.2 580.9 629.8V621H583.1V629.7V629.8Z" fill="white"/>
<path d="M589.8 633.1C589.1 633.1 588.4 633 587.8 632.7C587.2 632.5 586.7 632.1 586.3 631.7C585.9 631.3 585.6 630.7 585.4 630.2C585.2 629.6 585.1 628.9 585.1 628.2C585.1 627.5 585.1 626.8 585.4 626.2C585.6 625.6 585.9 625.1 586.3 624.7C586.7 624.3 587.2 623.9 587.8 623.7C589.1 623.2 590.5 623.2 591.8 623.7C592.4 623.9 592.9 624.3 593.3 624.7C593.7 625.1 594 625.7 594.2 626.2C594.4 626.8 594.5 627.5 594.5 628.2C594.5 628.9 594.5 629.6 594.2 630.2C594 630.8 593.7 631.3 593.3 631.7C592.9 632.1 592.4 632.5 591.8 632.7C591.2 633 590.5 633.1 589.8 633.1ZM589.8 631.5C590.2 631.5 590.6 631.5 591 631.2C591.3 631 591.6 630.8 591.8 630.4C592 630.1 592.2 629.7 592.3 629.3C592.4 628.9 592.5 628.5 592.5 628.1C592.5 627.7 592.5 627.3 592.3 626.9C592.3 626.5 592 626.2 591.8 625.9C591.6 625.6 591.3 625.3 591 625.1C590.3 624.7 589.4 624.7 588.6 625.1C588.3 625.3 588 625.5 587.8 625.9C587.6 626.2 587.4 626.5 587.3 626.9C587.3 627.3 587.2 627.7 587.1 628.1C587.1 628.5 587.1 628.9 587.3 629.3C587.3 629.7 587.6 630 587.8 630.4C588 630.7 588.3 631 588.6 631.2C589 631.4 589.4 631.5 589.8 631.5Z" fill="white"/>
<path d="M597.7 629.9C597.7 630.4 598 630.9 598.4 631.2C598.8 631.4 599.3 631.6 599.8 631.6C600 631.6 600.2 631.6 600.5 631.6C600.7 631.6 601 631.6 601.2 631.4C601.4 631.4 601.6 631.2 601.7 631C602 630.6 601.9 630.1 601.7 629.7C601.5 629.5 601.3 629.4 601 629.3C600.7 629.2 600.3 629.1 600 629L598.9 628.8C598.5 628.8 598.2 628.6 597.8 628.5C597.4 628.4 597.1 628.2 596.8 628C596.5 627.8 596.3 627.5 596.2 627.1C596 626.7 595.9 626.3 596 625.9C596 625.4 596.1 625 596.4 624.6C596.6 624.3 597 624 597.3 623.8C597.7 623.6 598.1 623.4 598.6 623.4C599 623.4 599.5 623.3 599.9 623.3C600.4 623.3 600.8 623.3 601.3 623.5C601.7 623.5 602.1 623.8 602.5 624C602.9 624.2 603.2 624.5 603.4 624.9C603.6 625.3 603.8 625.8 603.8 626.2H601.7C601.7 625.8 601.4 625.4 601 625.2C600.6 625 600.2 624.9 599.8 625C599.6 625 599.5 625 599.3 625C599.1 625 598.9 625 598.7 625.1C598.5 625.1 598.4 625.3 598.3 625.4C598.2 625.5 598.1 625.7 598.1 625.9C598.1 626.1 598.1 626.4 598.4 626.5C598.6 626.7 598.8 626.8 599.1 626.9C599.4 627 599.8 627.1 600.1 627.2L601.2 627.4C601.6 627.4 601.9 627.6 602.3 627.7C602.7 627.8 603 628 603.3 628.2C603.6 628.4 603.8 628.7 604 629C604.2 629.4 604.3 629.8 604.3 630.2C604.3 630.7 604.2 631.2 603.9 631.6C603.6 632 603.3 632.3 602.9 632.5C602.5 632.7 602 632.9 601.6 633C601.1 633.1 600.6 633.2 600.1 633.2C599.6 633.2 599 633.2 598.5 633C598 632.9 597.6 632.7 597.2 632.4C596.8 632.1 596.5 631.8 596.3 631.4C596.1 631 596 630.5 596 630H598L597.7 629.9Z" fill="white"/>
<path d="M607.1 628.8C607.1 629.1 607.1 629.5 607.3 629.8C607.3 630.1 607.6 630.4 607.8 630.7C608 631 608.3 631.2 608.6 631.3C609 631.5 609.3 631.5 609.7 631.5C610.2 631.5 610.8 631.5 611.2 631.2C611.6 630.9 611.9 630.5 612 630H613.9C613.9 630.5 613.6 630.9 613.3 631.3C613 631.7 612.7 632 612.3 632.3C611.9 632.6 611.5 632.8 611.1 632.9C610.6 633 610.1 633.1 609.6 633.1C608.9 633.1 608.3 633 607.7 632.7C607.2 632.5 606.7 632.1 606.3 631.7C605.9 631.3 605.6 630.7 605.4 630.2C605.2 629.6 605.1 628.9 605.1 628.2C605.1 627.6 605.2 626.9 605.4 626.3C605.6 625.7 605.9 625.2 606.3 624.7C607.1 623.7 608.3 623.2 609.6 623.2C610.3 623.2 611 623.3 611.6 623.7C612.2 624 612.7 624.4 613.1 624.9C613.5 625.4 613.8 626 613.9 626.6C614.1 627.3 614.1 627.9 614 628.6H607.1V628.8ZM611.9 627.5C611.9 627.2 611.9 626.9 611.7 626.6C611.6 626.3 611.4 626 611.2 625.8C611 625.6 610.8 625.4 610.5 625.3C610.2 625.2 609.9 625.1 609.6 625.1C609.3 625.1 608.9 625.1 608.6 625.3C608.3 625.4 608.1 625.6 607.8 625.8C607.6 626 607.4 626.3 607.3 626.6C607.2 626.9 607.1 627.3 607.1 627.6H611.9V627.5Z" fill="white"/>
<path d="M614.6 623.6H616.1V622.8C616.1 622.3 616.1 621.8 616.3 621.4C616.4 621.1 616.6 620.8 616.9 620.6C617.1 620.4 617.4 620.3 617.7 620.2C618 620.2 618.4 620.1 618.7 620.2C619.2 620.2 619.6 620.2 620.1 620.2V621.8C620 621.8 619.8 621.8 619.7 621.8H619.2C618.9 621.8 618.7 621.8 618.5 622C618.3 622.2 618.2 622.5 618.2 622.8V623.8H619.9V625.3H618.2V633.1H616.2V625.3H614.7V623.8L614.6 623.6Z" fill="white"/>
<path d="M626.5 621H632.2C633 621 633.7 621.1 634.4 621.4C634.9 621.6 635.4 622 635.7 622.4C636 622.8 636.2 623.2 636.3 623.7C636.4 624.1 636.5 624.6 636.5 625C636.5 625.4 636.5 625.9 636.3 626.3C636.2 626.8 636 627.2 635.7 627.6C635.3 628 634.9 628.4 634.4 628.6C633.7 628.9 632.9 629 632.2 629H628.8V633.9H626.6V621H626.5ZM628.7 627.1H632C632.3 627.1 632.5 627.1 632.8 627C633.1 627 633.3 626.8 633.5 626.7C633.7 626.5 633.9 626.3 634 626C634.1 625.7 634.2 625.3 634.2 625C634.2 624.7 634.2 624.3 634 624C633.8 623.5 633.3 623.1 632.8 623C632.5 623 632.2 623 632 623H628.7V627.2V627.1Z" fill="white"/>
<path d="M638.2 623.6H640.1V625.4C640.1 625.1 640.3 624.9 640.5 624.7C640.7 624.5 640.9 624.2 641.1 624C641.3 623.8 641.6 623.6 641.9 623.5C642.2 623.4 642.5 623.3 642.8 623.3H643.6V625.3H643.2C643.1 625.3 642.9 625.3 642.7 625.3C642 625.3 641.4 625.6 640.9 626.1C640.7 626.4 640.5 626.7 640.4 627.1C640.3 627.5 640.2 628 640.2 628.5V632.9H638.2V623.6Z" fill="white"/>
<path d="M652.7 632.9H650.7V631.6C650.4 632.1 650 632.5 649.6 632.7C649.1 633 648.6 633.1 648.1 633.1C647.1 633.1 646.2 632.9 645.4 632.2C644.8 631.4 644.5 630.4 644.6 629.5V623.6H646.6V629.3C646.6 629.9 646.7 630.5 647.1 631C647.4 631.3 647.9 631.5 648.4 631.5C648.8 631.5 649.1 631.5 649.5 631.3C649.8 631.2 650 631 650.2 630.8C650.4 630.6 650.5 630.3 650.6 630C650.6 629.7 650.7 629.3 650.7 629V623.6H652.7V632.9Z" fill="white"/>
<path d="M656.4 629.9C656.4 630.4 656.7 630.9 657.1 631.1C657.5 631.3 658 631.5 658.5 631.5C658.7 631.5 658.9 631.5 659.2 631.5C659.4 631.5 659.7 631.5 659.9 631.3C660.1 631.3 660.3 631.1 660.4 630.9C660.5 630.7 660.6 630.5 660.6 630.3C660.6 630.1 660.5 629.8 660.3 629.6C660.1 629.4 659.9 629.3 659.6 629.2C659.3 629.1 658.9 629 658.6 628.9L657.5 628.7C657.1 628.7 656.8 628.5 656.4 628.4C656 628.3 655.7 628.1 655.4 627.9C655.1 627.7 654.9 627.4 654.7 627.1C654.5 626.7 654.4 626.3 654.4 625.9C654.4 625.4 654.5 625 654.8 624.6C655 624.3 655.4 624 655.7 623.8C656.1 623.6 656.5 623.4 657 623.4C657.4 623.4 657.9 623.3 658.3 623.3C658.8 623.3 659.2 623.3 659.7 623.5C660.1 623.6 660.5 623.8 660.9 624C661.3 624.2 661.6 624.5 661.8 624.9C662 625.3 662.2 625.8 662.2 626.2H660.1C660.1 625.8 659.8 625.4 659.4 625.2C659 625 658.6 624.9 658.2 625C658 625 657.9 625 657.7 625C657.5 625 657.3 625 657.2 625.1C657 625.1 656.9 625.3 656.8 625.4C656.7 625.5 656.6 625.7 656.6 625.9C656.6 626.1 656.6 626.4 656.9 626.5C657.1 626.7 657.3 626.8 657.6 626.9C657.9 627 658.3 627.1 658.6 627.2L659.7 627.4C660.1 627.4 660.4 627.6 660.8 627.7C661.2 627.8 661.5 628 661.8 628.2C662.1 628.4 662.3 628.7 662.5 629C662.7 629.4 662.8 629.8 662.8 630.2C662.8 630.7 662.7 631.2 662.4 631.6C662.1 632 661.8 632.3 661.4 632.5C661 632.7 660.5 632.9 660.1 633C659.6 633.1 659.1 633.2 658.6 633.2C658 633.2 657.5 633.2 657 633C656.5 632.9 656.1 632.7 655.7 632.4C655.3 632.1 655 631.8 654.8 631.4C654.6 631 654.5 630.5 654.5 630H656.6L656.4 629.9Z" fill="white"/>
<path d="M672 630.8C672 631 672 631.2 672 631.3C672 631.4 672.2 631.5 672.4 631.5H672.9V632.9H672.6L672.3 633.1H671.9C671.8 633.1 671.7 633.1 671.6 633.1C671.3 633.1 670.9 633.1 670.6 632.9C670.3 632.7 670.1 632.4 670.1 632C669.7 632.4 669.2 632.7 668.6 632.9C668 633.1 667.5 633.2 666.9 633.2C666.5 633.2 666.1 633.2 665.7 633C665.3 632.9 665 632.7 664.7 632.5C664.4 632.3 664.2 632 664 631.7C663.8 631.3 663.7 630.9 663.7 630.5C663.7 630 663.7 629.5 664 629.1C664.2 628.8 664.5 628.5 664.8 628.3C665.2 628.1 665.5 627.9 666 627.9C666.4 627.9 666.9 627.7 667.3 627.7C667.6 627.7 668 627.6 668.4 627.5C668.7 627.5 669 627.5 669.3 627.3C669.5 627.3 669.7 627.1 669.9 627C670.1 626.8 670.1 626.6 670.1 626.3C670.1 626.1 670.1 625.8 669.9 625.6C669.8 625.4 669.6 625.3 669.4 625.2C669.2 625.2 669 625 668.8 625C668.6 625 668.4 625 668.1 625C667.6 625 667.1 625.1 666.7 625.4C666.3 625.7 666.1 626.1 666.1 626.5H664.1C664.1 626 664.3 625.5 664.5 625C664.8 624.6 665.1 624.3 665.5 624C665.9 623.8 666.4 623.6 666.8 623.5C667.3 623.4 667.8 623.3 668.3 623.3C668.8 623.3 669.2 623.3 669.6 623.5C670 623.5 670.4 623.7 670.8 624C671.1 624.2 671.4 624.5 671.6 624.8C671.8 625.2 671.9 625.6 671.9 626V630.8H672ZM669.8 628.2C669.5 628.4 669.1 628.5 668.6 628.6C668.1 628.6 667.7 628.7 667.2 628.8C667 628.8 666.8 628.8 666.6 629C666.4 629 666.2 629.1 666.1 629.3C665.9 629.4 665.8 629.6 665.7 629.8C665.7 630 665.6 630.2 665.6 630.5C665.6 630.7 665.6 630.9 665.8 631.1C665.9 631.3 666.1 631.4 666.3 631.5C666.5 631.5 666.7 631.7 666.9 631.7C667.1 631.7 667.3 631.7 667.5 631.7C667.7 631.7 668 631.7 668.2 631.7C668.5 631.7 668.7 631.5 669 631.4C669.2 631.3 669.4 631.1 669.6 630.9C669.8 630.7 669.8 630.4 669.8 630.1V628.6V628.2Z" fill="white"/>
<path d="M370.232 584.586C376.365 584.586 380.098 588.319 380.098 595.385C380.098 602.451 376.231 606.184 370.232 606.184C364.233 606.184 360.367 602.318 360.367 595.385C360.367 588.453 364.366 584.586 370.232 584.586ZM375.165 595.385C375.165 590.319 373.165 587.786 370.232 587.786C367.299 587.786 365.166 590.319 365.166 595.385C365.166 600.451 366.899 602.851 370.232 602.851C373.565 602.851 375.165 600.318 375.165 595.385Z" fill="#959998"/>
<path d="M391.296 597.785H387.963V605.784H383.564V584.853H391.696C393.16 584.795 394.619 585.069 395.962 585.653C397.024 586.069 397.929 586.807 398.551 587.763C399.172 588.719 399.479 589.846 399.429 590.986C399.456 592.26 399.068 593.51 398.322 594.544C397.577 595.579 396.514 596.342 395.296 596.718L399.962 605.784H395.162L391.296 597.785ZM391.163 594.585C393.163 594.585 394.762 593.652 394.762 591.252C394.786 590.785 394.706 590.319 394.53 589.886C394.353 589.452 394.084 589.063 393.741 588.746C393.397 588.428 392.989 588.189 392.543 588.046C392.098 587.904 391.627 587.86 391.163 587.919H387.963V594.585H391.163Z" fill="#959998"/>
<path d="M403.161 584.853H407.694V605.784H403.161V584.853Z" fill="#959998"/>
<path d="M415.96 595.385C415.96 600.718 417.826 602.851 421.026 602.851C424.225 602.851 425.559 601.118 425.825 598.185V597.785H420.893V594.585H429.958V605.784H426.492V602.851H426.359C425.744 603.919 424.846 604.796 423.763 605.384C422.681 605.972 421.456 606.249 420.226 606.184C414.36 606.184 411.16 602.051 411.16 595.652C411.16 589.252 415.16 584.586 421.026 584.586C426.892 584.586 429.158 586.853 429.558 591.119H425.025C424.924 590.152 424.449 589.263 423.703 588.64C422.956 588.018 421.995 587.711 421.026 587.786C417.826 587.786 415.96 590.452 415.96 595.385Z" fill="#959998"/>
<path d="M433.958 584.853H438.49V605.784H433.958V584.853Z" fill="#959998"/>
<path d="M442.757 584.853H447.689L454.355 596.185C454.967 597.164 455.501 598.189 455.955 599.251V584.853H460.088V605.784H455.422L448.356 594.185C447.758 593.172 447.267 592.1 446.889 590.986H446.756V605.784H442.757V584.853Z" fill="#959998"/>
<path d="M476.219 601.118H468.487L467.02 605.784H462.754L469.953 584.853H475.019L482.485 605.784H477.686L476.219 601.118ZM471.553 591.652L469.553 597.785H475.152L473.153 591.786C472.619 589.919 472.353 588.719 472.353 588.719C472.16 589.715 471.892 590.696 471.553 591.652Z" fill="#959998"/>
<path d="M485.018 584.853H489.551V602.184H498.616V605.784H485.018V584.853Z" fill="#959998"/>
<path d="M512.481 598.585V605.784H507.948V584.853H515.281C519.814 584.853 523.28 586.719 523.28 591.519C523.28 596.318 519.547 598.585 514.881 598.585H512.481ZM515.148 595.252C515.641 595.313 516.142 595.264 516.614 595.107C517.085 594.95 517.516 594.689 517.874 594.344C518.232 593.999 518.508 593.578 518.682 593.112C518.856 592.646 518.924 592.147 518.88 591.652C518.88 589.119 517.414 588.053 515.148 588.053H512.481V595.252H515.148Z" fill="white"/>
<path d="M533.945 597.785H530.746V605.784H526.213V584.853H534.345C535.809 584.795 537.268 585.069 538.611 585.653C539.698 586.033 540.628 586.762 541.255 587.727C541.882 588.693 542.172 589.838 542.078 590.986C542.094 592.239 541.716 593.466 540.999 594.495C540.282 595.523 539.26 596.3 538.078 596.718L542.744 605.784H537.811L533.945 597.785ZM533.812 594.585C535.812 594.585 537.545 593.652 537.545 591.252C537.568 590.785 537.489 590.319 537.312 589.886C537.136 589.452 536.866 589.063 536.523 588.746C536.18 588.428 535.771 588.189 535.326 588.046C534.88 587.904 534.409 587.86 533.945 587.919H530.746V594.585H533.812Z" fill="white"/>
<path d="M545.411 584.853H549.81V596.985C549.648 598.455 549.927 599.94 550.61 601.251C551.505 602.114 552.699 602.597 553.943 602.597C555.186 602.597 556.381 602.114 557.276 601.251C558.076 600.184 557.942 598.451 557.942 596.985V584.853H562.342V598.451C562.342 603.651 559.009 606.184 553.81 606.184C548.61 606.184 545.411 603.784 545.411 598.451V584.853Z" fill="white"/>
<path d="M577.007 590.452C577.011 590.066 576.931 589.683 576.773 589.33C576.615 588.978 576.382 588.664 576.09 588.41C575.798 588.156 575.455 587.969 575.084 587.862C574.713 587.754 574.323 587.728 573.94 587.786C571.941 587.786 570.741 588.852 570.741 590.319C570.741 591.785 571.541 592.585 573.54 592.852L576.74 593.519C580.473 594.185 582.206 596.185 582.206 599.251C582.206 602.318 579.14 606.184 573.807 606.184C568.474 606.184 565.675 603.651 565.541 599.784H570.207C570.24 600.235 570.364 600.674 570.572 601.076C570.78 601.477 571.067 601.832 571.416 602.118C571.765 602.405 572.169 602.618 572.603 602.744C573.037 602.87 573.492 602.906 573.94 602.851C576.473 602.851 577.54 601.651 577.54 600.051C577.54 598.451 576.873 597.785 574.607 597.385L571.541 596.851C568.341 596.185 566.075 594.318 566.075 590.986C566.075 587.653 569.008 584.586 573.94 584.586C578.873 584.586 581.539 587.253 581.673 590.452H577.007Z" fill="white"/>
<path d="M597.004 601.118H589.405L587.805 605.784H583.539L590.872 584.853H595.804L603.27 605.784H598.604L597.004 601.118ZM592.338 591.652L590.472 597.785H595.938L594.071 591.786C593.698 590.794 593.429 589.767 593.271 588.719H593.138C592.945 589.715 592.677 590.696 592.338 591.652Z" fill="white"/>
<path d="M612.069 584.853H618.602L622.334 596.052C622.723 597.048 623.035 598.074 623.268 599.118L624.201 596.052L627.934 584.853H634.466V605.784H630.067V589.386H629.933C629.584 590.879 629.138 592.349 628.6 593.785L624.734 605.784H621.401L617.535 593.785C616.997 592.349 616.552 590.879 616.202 589.386V605.784H612.069V584.853Z" fill="#ED6B21"/>
<path d="M638.599 584.853H643.132V605.784H638.599V584.853Z" fill="#ED6B21"/>
<path d="M647.398 584.853H652.331L658.997 596.185C659.608 597.164 660.143 598.189 660.596 599.251V584.853H664.729V605.784H660.063L652.997 594.185C652.399 593.172 651.908 592.1 651.531 590.986H651.398V605.784H647.398V584.853Z" fill="#ED6B21"/>
<path d="M668.862 584.853H673.395V605.784H668.862V584.853Z" fill="#ED6B21"/>
<path d="M592.203 644.493V646.053H587.891V644.493H592.203ZM593.593 650V648.56L596.959 645.444C597.245 645.167 597.485 644.917 597.679 644.696C597.876 644.474 598.025 644.257 598.127 644.045C598.228 643.829 598.279 643.597 598.279 643.348C598.279 643.071 598.216 642.832 598.09 642.632C597.964 642.429 597.791 642.274 597.573 642.166C597.354 642.055 597.107 642 596.83 642C596.54 642 596.288 642.058 596.073 642.175C595.857 642.292 595.691 642.46 595.574 642.678C595.457 642.897 595.399 643.157 595.399 643.458H593.501C593.501 642.84 593.641 642.303 593.921 641.847C594.201 641.392 594.594 641.039 595.098 640.79C595.603 640.541 596.185 640.416 596.843 640.416C597.521 640.416 598.11 640.536 598.612 640.776C599.116 641.013 599.509 641.343 599.789 641.764C600.069 642.186 600.209 642.669 600.209 643.214C600.209 643.571 600.138 643.923 599.997 644.271C599.858 644.619 599.61 645.005 599.253 645.43C598.896 645.851 598.393 646.358 597.744 646.949L596.363 648.301V648.366H600.334V650H593.593ZM605.489 650.208C604.695 650.205 604.012 650.009 603.439 649.621C602.87 649.234 602.431 648.672 602.124 647.936C601.819 647.201 601.668 646.316 601.671 645.282C601.671 644.251 601.824 643.372 602.128 642.646C602.436 641.92 602.875 641.367 603.444 640.989C604.016 640.607 604.698 640.416 605.489 640.416C606.28 640.416 606.96 640.607 607.529 640.989C608.102 641.37 608.542 641.924 608.85 642.651C609.158 643.374 609.31 644.251 609.307 645.282C609.307 646.319 609.153 647.205 608.845 647.941C608.54 648.677 608.103 649.238 607.534 649.626C606.965 650.014 606.283 650.208 605.489 650.208ZM605.489 648.55C606.031 648.55 606.463 648.278 606.786 647.733C607.109 647.189 607.269 646.371 607.266 645.282C607.266 644.565 607.192 643.968 607.045 643.491C606.9 643.014 606.694 642.655 606.426 642.415C606.161 642.175 605.849 642.055 605.489 642.055C604.95 642.055 604.52 642.324 604.196 642.863C603.873 643.402 603.71 644.208 603.707 645.282C603.707 646.008 603.779 646.615 603.924 647.101C604.072 647.584 604.279 647.947 604.547 648.19C604.815 648.43 605.129 648.55 605.489 648.55ZM614.845 640.545V650H612.847V642.443H612.791L610.626 643.8V642.027L612.967 640.545H614.845ZM620.513 640.416C621 640.416 621.467 640.498 621.917 640.661C622.369 640.824 622.772 641.084 623.126 641.441C623.483 641.798 623.765 642.272 623.971 642.863C624.18 643.451 624.287 644.172 624.29 645.028C624.29 645.831 624.199 646.548 624.017 647.179C623.839 647.807 623.582 648.341 623.246 648.781C622.911 649.221 622.506 649.557 622.032 649.788C621.558 650.015 621.029 650.129 620.444 650.129C619.813 650.129 619.256 650.008 618.773 649.765C618.29 649.518 617.9 649.184 617.605 648.763C617.313 648.338 617.136 647.861 617.074 647.332H619.045C619.122 647.676 619.284 647.944 619.53 648.135C619.776 648.323 620.081 648.417 620.444 648.417C621.06 648.417 621.527 648.149 621.847 647.613C622.168 647.075 622.329 646.338 622.332 645.402H622.268C622.126 645.679 621.935 645.917 621.695 646.118C621.455 646.315 621.18 646.467 620.869 646.575C620.561 646.682 620.233 646.736 619.885 646.736C619.328 646.736 618.831 646.605 618.394 646.344C617.957 646.082 617.613 645.722 617.36 645.263C617.108 644.805 616.982 644.282 616.982 643.694C616.979 643.06 617.125 642.495 617.42 642C617.716 641.504 618.128 641.116 618.657 640.836C619.19 640.553 619.809 640.413 620.513 640.416ZM620.527 641.986C620.216 641.986 619.939 642.06 619.696 642.207C619.456 642.355 619.265 642.554 619.124 642.803C618.985 643.052 618.918 643.331 618.921 643.638C618.921 643.949 618.988 644.229 619.124 644.479C619.262 644.725 619.45 644.922 619.687 645.07C619.927 645.214 620.201 645.287 620.509 645.287C620.74 645.287 620.953 645.243 621.15 645.157C621.347 645.071 621.518 644.953 621.663 644.802C621.811 644.648 621.926 644.471 622.009 644.271C622.092 644.071 622.134 643.859 622.134 643.634C622.131 643.335 622.06 643.061 621.921 642.812C621.783 642.563 621.592 642.363 621.349 642.212C621.106 642.061 620.832 641.986 620.527 641.986Z" fill="white"/>
</g>
<defs>
<clipPath id="clip0_3_2">
<rect width="682.205" height="682.583" fill="white"/>
</clipPath>
</defs>
</svg>
