<svg width="711" height="597" viewBox="0 0 711 597" fill="none" xmlns="http://www.w3.org/2000/svg">
<g clip-path="url(#clip0_1_4)">
<path d="M0.699997 0.699997V596" stroke="white" stroke-width="1.4" stroke-linecap="round" stroke-linejoin="round"/>
<path d="M142.4 0.699997V595.6" stroke="white" stroke-width="1.4" stroke-linecap="round" stroke-linejoin="round"/>
<path d="M284.2 0.699997V595.6" stroke="white" stroke-width="1.4" stroke-linecap="round" stroke-linejoin="round"/>
<path d="M709.4 596V0.699997" stroke="white" stroke-width="1.4" stroke-linecap="round" stroke-linejoin="round"/>
<path d="M1.2 581.8H709.4" stroke="white" stroke-width="1.4" stroke-linecap="round" stroke-linejoin="round"/>
<path d="M0.699997 596H709.4" stroke="white" stroke-width="1.4" stroke-linecap="round" stroke-linejoin="round"/>
<path d="M1.2 440.1H709.4" stroke="white" stroke-width="1.4" stroke-linecap="round" stroke-linejoin="round"/>
<path d="M1.2 298.4H709.4" stroke="white" stroke-width="1.4" stroke-linecap="round" stroke-linejoin="round"/>
<path d="M1.2 156.6H709.4" stroke="white" stroke-width="1.4" stroke-linecap="round" stroke-linejoin="round"/>
<path d="M1.2 14.9H709.4" stroke="white" stroke-width="1.4" stroke-linecap="round" stroke-linejoin="round"/>
<path d="M709.4 0.699997H0.699997" stroke="white" stroke-width="1.4" stroke-linecap="round" stroke-linejoin="round"/>
<path d="M425.9 0.699997V499.4" stroke="white" stroke-width="1.4" stroke-linecap="round" stroke-linejoin="round"/>
<path d="M425.9 522.5V595.7" stroke="white" stroke-width="1.4" stroke-linecap="round" stroke-linejoin="round"/>
<path d="M567.6 0.699997V499.4" stroke="white" stroke-width="1.4" stroke-linecap="round" stroke-linejoin="round"/>
<path d="M567.6 522.5V527.7" stroke="white" stroke-width="1.4" stroke-linecap="round" stroke-linejoin="round"/>
<path d="M567.6 548.6V595.4" stroke="white" stroke-width="1.4" stroke-linecap="round" stroke-linejoin="round"/>
<path d="M85.8 0.699997V595.9" stroke="white" stroke-width="0.4" stroke-linecap="round" stroke-linejoin="round"/>
<path d="M114.1 0.699997V595.9" stroke="white" stroke-width="0.4" stroke-linecap="round" stroke-linejoin="round"/>
<path d="M170.8 0.699997V595.9" stroke="white" stroke-width="0.4" stroke-linecap="round" stroke-linejoin="round"/>
<path d="M199.1 0.699997V595.9" stroke="white" stroke-width="0.4" stroke-linecap="round" stroke-linejoin="round"/>
<path d="M227.5 0.699997V595.9" stroke="white" stroke-width="0.4" stroke-linecap="round" stroke-linejoin="round"/>
<path d="M255.8 0.699997V595.9" stroke="white" stroke-width="0.4" stroke-linecap="round" stroke-linejoin="round"/>
<path d="M312.5 0.699997V595.9" stroke="white" stroke-width="0.4" stroke-linecap="round" stroke-linejoin="round"/>
<path d="M340.9 0.699997V595.9" stroke="white" stroke-width="0.4" stroke-linecap="round" stroke-linejoin="round"/>
<path d="M681 0.699997V595.9" stroke="white" stroke-width="0.4" stroke-linecap="round" stroke-linejoin="round"/>
<path d="M29.1 0.699997V595.9" stroke="white" stroke-width="0.4" stroke-linecap="round" stroke-linejoin="round"/>
<path d="M57.4 0.699997V595.9" stroke="white" stroke-width="0.4" stroke-linecap="round" stroke-linejoin="round"/>
<path d="M1.5 468.4H709.4" stroke="white" stroke-width="0.4" stroke-linecap="round" stroke-linejoin="round"/>
<path d="M1.5 496.8H709.4" stroke="white" stroke-width="0.4" stroke-linecap="round" stroke-linejoin="round"/>
<path d="M1.5 525.1H709.4" stroke="white" stroke-width="0.4" stroke-linecap="round" stroke-linejoin="round"/>
<path d="M1.5 553.5H709.4" stroke="white" stroke-width="0.4" stroke-linecap="round" stroke-linejoin="round"/>
<path d="M1.5 411.7H709.4" stroke="white" stroke-width="0.4" stroke-linecap="round" stroke-linejoin="round"/>
<path d="M1.5 383.4H709.4" stroke="white" stroke-width="0.4" stroke-linecap="round" stroke-linejoin="round"/>
<path d="M1.5 355H709.4" stroke="white" stroke-width="0.4" stroke-linecap="round" stroke-linejoin="round"/>
<path d="M1.5 326.7H709.4" stroke="white" stroke-width="0.4" stroke-linecap="round" stroke-linejoin="round"/>
<path d="M1.5 270H709.4" stroke="white" stroke-width="0.4" stroke-linecap="round" stroke-linejoin="round"/>
<path d="M1.5 241.6H709.4" stroke="white" stroke-width="0.4" stroke-linecap="round" stroke-linejoin="round"/>
<path d="M1.5 213.3H709.4" stroke="white" stroke-width="0.4" stroke-linecap="round" stroke-linejoin="round"/>
<path d="M1.5 185H709.4" stroke="white" stroke-width="0.4" stroke-linecap="round" stroke-linejoin="round"/>
<path d="M1.5 128.3H709.4" stroke="white" stroke-width="0.4" stroke-linecap="round" stroke-linejoin="round"/>
<path d="M1.5 99.9H709.4" stroke="white" stroke-width="0.4" stroke-linecap="round" stroke-linejoin="round"/>
<path d="M1.5 71.6H709.4" stroke="white" stroke-width="0.4" stroke-linecap="round" stroke-linejoin="round"/>
<path d="M1.5 43.2H709.4" stroke="white" stroke-width="0.4" stroke-linecap="round" stroke-linejoin="round"/>
<path d="M369.2 0.699997V522.6" stroke="white" stroke-width="0.4" stroke-linecap="round" stroke-linejoin="round"/>
<path d="M369.2 522.6V595.7" stroke="white" stroke-width="0.4" stroke-linecap="round" stroke-linejoin="round"/>
<path d="M397.6 0.699997V499.4" stroke="white" stroke-width="0.4" stroke-linecap="round" stroke-linejoin="round"/>
<path d="M397.5 522.6V595.7" stroke="white" stroke-width="0.4" stroke-linecap="round" stroke-linejoin="round"/>
<path d="M454.2 0.699997V499.4" stroke="white" stroke-width="0.4" stroke-linecap="round" stroke-linejoin="round"/>
<path d="M454.3 522.6V595.6" stroke="white" stroke-width="0.4" stroke-linecap="round" stroke-linejoin="round"/>
<path d="M482.6 0.699997V499.4" stroke="white" stroke-width="0.4" stroke-linecap="round" stroke-linejoin="round"/>
<path d="M482.6 522.6V595.6" stroke="white" stroke-width="0.4" stroke-linecap="round" stroke-linejoin="round"/>
<path d="M510.9 0.699997V499.4" stroke="white" stroke-width="0.4" stroke-linecap="round" stroke-linejoin="round"/>
<path d="M510.9 522.6V595.6" stroke="white" stroke-width="0.4" stroke-linecap="round" stroke-linejoin="round"/>
<path d="M539.3 0.699997V499.4" stroke="white" stroke-width="0.4" stroke-linecap="round" stroke-linejoin="round"/>
<path d="M539.3 522.6V595.6" stroke="white" stroke-width="0.4" stroke-linecap="round" stroke-linejoin="round"/>
<path d="M596 0.699997V499.4" stroke="white" stroke-width="0.4" stroke-linecap="round" stroke-linejoin="round"/>
<path d="M624.3 0.699997V499.4" stroke="white" stroke-width="0.4" stroke-linecap="round" stroke-linejoin="round"/>
<path d="M652.7 0.699997V522.5" stroke="white" stroke-width="0.4" stroke-linecap="round" stroke-linejoin="round"/>
<path d="M652.7 522.5V527.7" stroke="white" stroke-width="0.4" stroke-linecap="round" stroke-linejoin="round"/>
<path d="M652.6 548.3V596" stroke="white" stroke-width="0.4" stroke-linecap="round" stroke-linejoin="round"/>
<path d="M624.3 522.5V527.7" stroke="white" stroke-width="0.4" stroke-linecap="round" stroke-linejoin="round"/>
<path d="M624.3 548.3V596" stroke="white" stroke-width="0.4" stroke-linecap="round" stroke-linejoin="round"/>
<path d="M596 522.5V527.7" stroke="white" stroke-width="0.4" stroke-linecap="round" stroke-linejoin="round"/>
<path d="M596 572V596" stroke="white" stroke-width="0.4" stroke-linecap="round" stroke-linejoin="round"/>
<path d="M596 554V559" stroke="white" stroke-width="0.4" stroke-linecap="round" stroke-linejoin="round"/>
<path d="M548.6 534H550.7V538.8C550.8 538.6 551 538.4 551.2 538.2C551.4 538 551.6 537.9 551.9 537.7C552.1 537.6 552.4 537.5 552.7 537.4C553 537.4 553.2 537.3 553.5 537.4C554.2 537.4 554.8 537.5 555.4 537.8C555.9 538 556.4 538.4 556.8 538.9C557.2 539.4 557.4 539.9 557.6 540.5C557.8 541.1 557.9 541.8 557.9 542.4C557.9 543 557.9 543.6 557.7 544.2C557.5 544.8 557.3 545.3 557 545.8C556.3 546.8 555.2 547.3 554 547.3C553.7 547.3 553.4 547.3 553 547.3C552.7 547.3 552.4 547.2 552.1 547.1C551.8 547 551.6 546.8 551.3 546.6C551.1 546.4 550.9 546.1 550.7 545.8V547.1H548.7V534.2L548.6 534ZM555.8 542.2C555.8 541.8 555.8 541.4 555.6 541C555.5 540.6 555.3 540.3 555.1 540C554.9 539.7 554.6 539.4 554.3 539.3C554 539.1 553.6 539 553.2 539C552.4 539 551.7 539.3 551.2 539.9C550.7 540.6 550.5 541.5 550.5 542.3C550.5 542.7 550.5 543.2 550.7 543.6C550.8 544 551 544.3 551.2 544.6C551.4 544.9 551.7 545.1 552 545.3C552.3 545.5 552.7 545.6 553.1 545.5C553.5 545.5 553.9 545.5 554.3 545.2C554.6 545 554.9 544.8 555.1 544.5C555.3 544.2 555.5 543.8 555.6 543.5C555.6 543.1 555.7 542.7 555.7 542.3L555.8 542.2Z" fill="white"/>
<path d="M558.5 535.6H560.7L563.1 542.6L565.5 535.6H567.6L564 545.4C563.8 545.8 563.7 546.2 563.5 546.6C563.3 547 563.1 547.3 562.9 547.6C562.7 547.9 562.4 548.1 562 548.3C561.6 548.5 561.1 548.6 560.7 548.6C560.2 548.6 559.7 548.6 559.3 548.5V546.8H559.8C560 546.8 560.1 546.8 560.3 546.8C560.5 546.8 560.7 546.8 560.9 546.8C561 546.8 561.2 546.7 561.3 546.5C561.4 546.4 561.5 546.2 561.6 546.1C561.6 545.9 561.7 545.7 561.8 545.6L562 544.9L558.5 535.7V535.6Z" fill="white"/>
<path d="M581.1 540.8C581.1 541.3 581.1 541.9 581 542.4C581 542.9 580.7 543.4 580.4 543.8C580.1 544.2 579.6 544.6 579.1 544.8C578.4 545.1 577.6 545.2 576.9 545.2C576.3 545.2 575.7 545.2 575.2 544.9C574.7 544.7 574.3 544.4 574 544C573.7 543.6 573.4 543.2 573.3 542.7C573.2 542.2 573.1 541.6 573.1 541.1V540.4H575.3V541.1C575.3 541.7 575.3 542.3 575.7 542.8C576 543.2 576.6 543.5 577.1 543.4C577.4 543.4 577.7 543.4 578 543.2C578.2 543.1 578.4 542.9 578.6 542.7C578.7 542.5 578.8 542.2 578.9 541.9C578.9 541.5 578.9 541.2 578.9 540.8V532H581.1V540.7V540.8Z" fill="white"/>
<path d="M587.8 545.1C587.1 545.1 586.4 545 585.8 544.7C585.2 544.5 584.7 544.1 584.3 543.7C583.9 543.3 583.6 542.7 583.4 542.2C583.2 541.6 583.1 540.9 583.1 540.2C583.1 539.5 583.1 538.8 583.4 538.2C583.6 537.6 583.9 537.1 584.3 536.7C584.7 536.3 585.2 535.9 585.8 535.7C587.1 535.2 588.5 535.2 589.8 535.7C590.4 535.9 590.9 536.3 591.3 536.7C591.7 537.1 592 537.7 592.2 538.2C592.4 538.8 592.5 539.5 592.5 540.2C592.5 540.9 592.5 541.6 592.2 542.2C592 542.8 591.7 543.3 591.3 543.7C590.9 544.1 590.4 544.5 589.8 544.7C589.2 545 588.5 545.1 587.8 545.1ZM587.8 543.5C588.2 543.5 588.6 543.5 589 543.2C589.3 543 589.6 542.8 589.8 542.4C590 542.1 590.2 541.7 590.3 541.3C590.4 540.9 590.5 540.5 590.5 540.1C590.5 539.7 590.5 539.3 590.3 538.9C590.3 538.5 590 538.2 589.8 537.9C589.6 537.6 589.3 537.3 589 537.1C588.3 536.7 587.4 536.7 586.6 537.1C586.3 537.3 586 537.5 585.8 537.9C585.6 538.2 585.4 538.5 585.3 538.9C585.3 539.3 585.2 539.7 585.1 540.1C585.1 540.5 585.1 540.9 585.3 541.3C585.3 541.7 585.6 542 585.8 542.4C586 542.7 586.3 543 586.6 543.2C587 543.4 587.4 543.5 587.8 543.5Z" fill="white"/>
<path d="M595.7 541.9C595.7 542.4 596 542.9 596.4 543.2C596.8 543.4 597.3 543.6 597.8 543.6C598 543.6 598.2 543.6 598.5 543.6C598.7 543.6 599 543.6 599.2 543.4C599.4 543.4 599.6 543.2 599.7 543C600 542.6 599.9 542.1 599.7 541.7C599.5 541.5 599.3 541.4 599 541.3C598.7 541.2 598.3 541.1 598 541L596.9 540.8C596.5 540.8 596.2 540.6 595.8 540.5C595.4 540.4 595.1 540.2 594.8 540C594.5 539.8 594.3 539.5 594.2 539.1C594 538.7 593.9 538.3 594 537.9C594 537.4 594.1 537 594.4 536.6C594.6 536.3 595 536 595.3 535.8C595.7 535.6 596.1 535.4 596.6 535.4C597 535.4 597.5 535.3 597.9 535.3C598.4 535.3 598.8 535.3 599.3 535.5C599.7 535.5 600.1 535.8 600.5 536C600.9 536.2 601.2 536.5 601.4 536.9C601.6 537.3 601.8 537.8 601.8 538.2H599.7C599.7 537.8 599.4 537.4 599 537.2C598.6 537 598.2 536.9 597.8 537C597.6 537 597.5 537 597.3 537C597.1 537 596.9 537 596.7 537.1C596.5 537.1 596.4 537.3 596.3 537.4C596.2 537.5 596.1 537.7 596.1 537.9C596.1 538.1 596.1 538.4 596.4 538.5C596.6 538.7 596.8 538.8 597.1 538.9C597.4 539 597.8 539.1 598.1 539.2L599.2 539.4C599.6 539.4 599.9 539.6 600.3 539.7C600.7 539.8 601 540 601.3 540.2C601.6 540.4 601.8 540.7 602 541C602.2 541.4 602.3 541.8 602.3 542.2C602.3 542.7 602.2 543.2 601.9 543.6C601.6 544 601.3 544.3 600.9 544.5C600.5 544.7 600 544.9 599.6 545C599.1 545.1 598.6 545.2 598.1 545.2C597.6 545.2 597 545.2 596.5 545C596 544.9 595.6 544.7 595.2 544.4C594.8 544.1 594.5 543.8 594.3 543.4C594.1 543 594 542.5 594 542H596L595.7 541.9Z" fill="white"/>
<path d="M605.1 540.8C605.1 541.1 605.1 541.5 605.3 541.8C605.3 542.1 605.6 542.4 605.8 542.7C606 543 606.3 543.2 606.6 543.3C607 543.5 607.3 543.5 607.7 543.5C608.2 543.5 608.8 543.5 609.2 543.2C609.6 542.9 609.9 542.5 610 542H611.9C611.9 542.5 611.6 542.9 611.3 543.3C611 543.7 610.7 544 610.3 544.3C609.9 544.6 609.5 544.8 609.1 544.9C608.6 545 608.1 545.1 607.6 545.1C606.9 545.1 606.3 545 605.7 544.7C605.2 544.5 604.7 544.1 604.3 543.7C603.9 543.3 603.6 542.7 603.4 542.2C603.2 541.6 603.1 540.9 603.1 540.2C603.1 539.6 603.2 538.9 603.4 538.3C603.6 537.7 603.9 537.2 604.3 536.7C605.1 535.7 606.3 535.2 607.6 535.2C608.3 535.2 609 535.3 609.6 535.7C610.2 536 610.7 536.4 611.1 536.9C611.5 537.4 611.8 538 611.9 538.6C612.1 539.3 612.1 539.9 612 540.6H605.1V540.8ZM609.9 539.5C609.9 539.2 609.9 538.9 609.7 538.6C609.6 538.3 609.4 538 609.2 537.8C609 537.6 608.8 537.4 608.5 537.3C608.2 537.2 607.9 537.1 607.6 537.1C607.3 537.1 606.9 537.1 606.6 537.3C606.3 537.4 606.1 537.6 605.8 537.8C605.6 538 605.4 538.3 605.3 538.6C605.2 538.9 605.1 539.3 605.1 539.6H609.9V539.5Z" fill="white"/>
<path d="M612.6 535.6H614.1V534.8C614.1 534.3 614.1 533.8 614.3 533.4C614.4 533.1 614.6 532.8 614.9 532.6C615.1 532.4 615.4 532.3 615.7 532.2C616 532.2 616.4 532.1 616.7 532.2C617.2 532.2 617.6 532.2 618.1 532.2V533.8C618 533.8 617.8 533.8 617.7 533.8H617.2C616.9 533.8 616.7 533.8 616.5 534C616.3 534.2 616.2 534.5 616.2 534.8V535.8H617.9V537.3H616.2V545.1H614.2V537.3H612.7V535.8L612.6 535.6Z" fill="white"/>
<path d="M624.5 532H630.2C631 532 631.7 532.1 632.4 532.4C632.9 532.6 633.4 533 633.7 533.4C634 533.8 634.2 534.2 634.3 534.7C634.4 535.1 634.5 535.6 634.5 536C634.5 536.4 634.5 536.9 634.3 537.3C634.2 537.8 634 538.2 633.7 538.6C633.3 539 632.9 539.4 632.4 539.6C631.7 539.9 630.9 540 630.2 540H626.8V544.9H624.6V532H624.5ZM626.7 538.1H630C630.3 538.1 630.5 538.1 630.8 538C631.1 538 631.3 537.8 631.5 537.7C631.7 537.5 631.9 537.3 632 537C632.1 536.7 632.2 536.3 632.2 536C632.2 535.7 632.2 535.3 632 535C631.8 534.5 631.3 534.1 630.8 534C630.5 534 630.2 534 630 534H626.7V538.2V538.1Z" fill="white"/>
<path d="M636.2 535.6H638.1V537.4C638.1 537.1 638.3 536.9 638.5 536.7C638.7 536.5 638.9 536.2 639.1 536C639.3 535.8 639.6 535.6 639.9 535.5C640.2 535.4 640.5 535.3 640.8 535.3H641.6V537.3H641.2C641.1 537.3 640.9 537.3 640.7 537.3C640 537.3 639.4 537.6 638.9 538.1C638.7 538.4 638.5 538.7 638.4 539.1C638.3 539.5 638.2 540 638.2 540.5V544.9H636.2V535.6Z" fill="white"/>
<path d="M650.7 544.9H648.7V543.6C648.4 544.1 648 544.5 647.6 544.7C647.1 545 646.6 545.1 646.1 545.1C645.1 545.1 644.2 544.9 643.4 544.2C642.8 543.4 642.5 542.4 642.6 541.5V535.6H644.6V541.3C644.6 541.9 644.7 542.5 645.1 543C645.4 543.3 645.9 543.5 646.4 543.5C646.8 543.5 647.1 543.5 647.5 543.3C647.8 543.2 648 543 648.2 542.8C648.4 542.6 648.5 542.3 648.6 542C648.6 541.7 648.7 541.3 648.7 541V535.6H650.7V544.9Z" fill="white"/>
<path d="M654.4 541.9C654.4 542.4 654.7 542.9 655.1 543.1C655.5 543.3 656 543.5 656.5 543.5C656.7 543.5 656.9 543.5 657.2 543.5C657.4 543.5 657.7 543.5 657.9 543.3C658.1 543.3 658.3 543.1 658.4 542.9C658.5 542.7 658.6 542.5 658.6 542.3C658.6 542.1 658.5 541.8 658.3 541.6C658.1 541.4 657.9 541.3 657.6 541.2C657.3 541.1 656.9 541 656.6 540.9L655.5 540.7C655.1 540.7 654.8 540.5 654.4 540.4C654 540.3 653.7 540.1 653.4 539.9C653.1 539.7 652.9 539.4 652.7 539.1C652.5 538.7 652.4 538.3 652.4 537.9C652.4 537.4 652.5 537 652.8 536.6C653 536.3 653.4 536 653.7 535.8C654.1 535.6 654.5 535.4 655 535.4C655.4 535.4 655.9 535.3 656.3 535.3C656.8 535.3 657.2 535.3 657.7 535.5C658.1 535.6 658.5 535.8 658.9 536C659.3 536.2 659.6 536.5 659.8 536.9C660 537.3 660.2 537.8 660.2 538.2H658.1C658.1 537.8 657.8 537.4 657.4 537.2C657 537 656.6 536.9 656.2 537C656 537 655.9 537 655.7 537C655.5 537 655.3 537 655.2 537.1C655 537.1 654.9 537.3 654.8 537.4C654.7 537.5 654.6 537.7 654.6 537.9C654.6 538.1 654.6 538.4 654.9 538.5C655.1 538.7 655.3 538.8 655.6 538.9C655.9 539 656.3 539.1 656.6 539.2L657.7 539.4C658.1 539.4 658.4 539.6 658.8 539.7C659.2 539.8 659.5 540 659.8 540.2C660.1 540.4 660.3 540.7 660.5 541C660.7 541.4 660.8 541.8 660.8 542.2C660.8 542.7 660.7 543.2 660.4 543.6C660.1 544 659.8 544.3 659.4 544.5C659 544.7 658.5 544.9 658.1 545C657.6 545.1 657.1 545.2 656.6 545.2C656 545.2 655.5 545.2 655 545C654.5 544.9 654.1 544.7 653.7 544.4C653.3 544.1 653 543.8 652.8 543.4C652.6 543 652.5 542.5 652.5 542H654.6L654.4 541.9Z" fill="white"/>
<path d="M670 542.8C670 543 670 543.2 670 543.3C670 543.4 670.2 543.5 670.4 543.5H670.9V544.9H670.6L670.3 545.1H669.9C669.8 545.1 669.7 545.1 669.6 545.1C669.3 545.1 668.9 545.1 668.6 544.9C668.3 544.7 668.1 544.4 668.1 544C667.7 544.4 667.2 544.7 666.6 544.9C666 545.1 665.5 545.2 664.9 545.2C664.5 545.2 664.1 545.2 663.7 545C663.3 544.9 663 544.7 662.7 544.5C662.4 544.3 662.2 544 662 543.7C661.8 543.3 661.7 542.9 661.7 542.5C661.7 542 661.7 541.5 662 541.1C662.2 540.8 662.5 540.5 662.8 540.3C663.2 540.1 663.5 539.9 664 539.9C664.4 539.9 664.9 539.7 665.3 539.7C665.6 539.7 666 539.6 666.4 539.5C666.7 539.5 667 539.5 667.3 539.3C667.5 539.3 667.7 539.1 667.9 539C668.1 538.8 668.1 538.6 668.1 538.3C668.1 538.1 668.1 537.8 667.9 537.6C667.8 537.4 667.6 537.3 667.4 537.2C667.2 537.2 667 537 666.8 537C666.6 537 666.4 537 666.1 537C665.6 537 665.1 537.1 664.7 537.4C664.3 537.7 664.1 538.1 664.1 538.5H662.1C662.1 538 662.3 537.5 662.5 537C662.8 536.6 663.1 536.3 663.5 536C663.9 535.8 664.4 535.6 664.8 535.5C665.3 535.4 665.8 535.3 666.3 535.3C666.8 535.3 667.2 535.3 667.6 535.5C668 535.5 668.4 535.7 668.8 536C669.1 536.2 669.4 536.5 669.6 536.8C669.8 537.2 669.9 537.6 669.9 538V542.8H670ZM667.8 540.2C667.5 540.4 667.1 540.5 666.6 540.6C666.1 540.6 665.7 540.7 665.2 540.8C665 540.8 664.8 540.8 664.6 541C664.4 541 664.2 541.1 664.1 541.3C663.9 541.4 663.8 541.6 663.7 541.8C663.7 542 663.6 542.2 663.6 542.5C663.6 542.7 663.6 542.9 663.8 543.1C663.9 543.3 664.1 543.4 664.3 543.5C664.5 543.5 664.7 543.7 664.9 543.7C665.1 543.7 665.3 543.7 665.5 543.7C665.7 543.7 666 543.7 666.2 543.7C666.5 543.7 666.7 543.5 667 543.4C667.2 543.3 667.4 543.1 667.6 542.9C667.8 542.7 667.8 542.4 667.8 542.1V540.6V540.2Z" fill="white"/>
<path d="M385.6 511.3C385.6 510 385.8 508.7 386.2 507.6C386.6 506.5 387.2 505.5 387.9 504.6C388.6 503.7 389.6 503.1 390.7 502.6C391.8 502.1 393 501.9 394.4 501.9C395.8 501.9 397 502.1 398.1 502.6C399.2 503.1 400.1 503.8 400.9 504.6C401.7 505.4 402.2 506.4 402.6 507.6C403 508.8 403.2 510 403.2 511.3C403.2 512.6 403 513.8 402.6 514.9C402.2 516 401.6 517 400.9 517.8C400.2 518.6 399.2 519.3 398.1 519.8C397 520.3 395.8 520.5 394.4 520.5C393 520.5 391.8 520.3 390.7 519.8C389.6 519.3 388.7 518.7 387.9 517.8C387.2 517 386.6 516 386.2 514.9C385.8 513.8 385.6 512.6 385.6 511.3ZM389.5 511.3C389.5 512 389.6 512.8 389.8 513.5C390 514.2 390.2 514.8 390.7 515.4C391.1 516 391.6 516.4 392.2 516.8C392.8 517.2 393.6 517.3 394.4 517.3C395.2 517.3 396 517.1 396.6 516.8C397.2 516.5 397.7 516 398.1 515.4C398.5 514.8 398.7 514.2 399 513.5C399.2 512.8 399.3 512.1 399.3 511.3C399.3 510.5 399.2 509.8 399 509C398.8 508.3 398.6 507.6 398.1 507.1C397.7 506.5 397.2 506.1 396.6 505.7C396 505.4 395.2 505.2 394.4 505.2C393.6 505.2 392.8 505.4 392.2 505.7C391.6 506 391.1 506.5 390.7 507.1C390.3 507.7 390.1 508.3 389.8 509C389.6 509.7 389.5 510.5 389.5 511.3Z" fill="#959998"/>
<path d="M404.8 502.3H414.4C415.2 502.3 415.9 502.4 416.5 502.7C417.1 503 417.7 503.3 418.1 503.8C418.5 504.2 418.9 504.8 419.2 505.4C419.4 506 419.6 506.6 419.6 507.3C419.6 508.4 419.4 509.2 419 510C418.6 510.7 417.8 511.4 416.9 511.7C417.4 511.9 417.8 512.1 418.1 512.3C418.4 512.5 418.7 512.9 418.9 513.3C419.1 513.7 419.2 514.1 419.3 514.5C419.4 514.9 419.5 515.4 419.5 515.8C419.5 516.2 419.5 516.4 419.5 516.8C419.5 517.2 419.5 517.6 419.6 518C419.6 518.4 419.7 518.8 419.8 519.1C419.9 519.5 420 519.8 420.2 520H416.3C416.2 519.7 416.1 519.4 416 519.1C416 518.8 415.9 518.4 415.9 518C415.9 517.6 415.9 517.3 415.8 516.8C415.8 516.4 415.8 516.1 415.7 515.7C415.6 514.8 415.3 514.1 414.8 513.7C414.3 513.3 413.7 513.1 412.7 513.1H408.8V520H404.9V502.3H404.8ZM408.7 510.4H413C413.9 510.4 414.6 510.2 415 509.8C415.4 509.4 415.7 508.7 415.7 507.9C415.7 507.1 415.5 506.4 415 506C414.5 505.6 413.9 505.4 413 505.4H408.7V510.4Z" fill="#959998"/>
<path d="M421.8 502.3H425.7V520.1H421.8V502.3Z" fill="#959998"/>
<path d="M441 518.1C440.3 519 439.5 519.6 438.7 520C437.9 520.4 437 520.5 436.1 520.5C434.7 520.5 433.5 520.3 432.4 519.8C431.3 519.3 430.4 518.7 429.6 517.8C428.9 517 428.3 516 427.9 514.9C427.5 513.8 427.3 512.6 427.3 511.3C427.3 510 427.5 508.7 427.9 507.6C428.3 506.5 428.9 505.5 429.6 504.6C430.3 503.7 431.3 503.1 432.4 502.6C433.5 502.1 434.7 501.9 436.1 501.9C437.5 501.9 437.9 502 438.8 502.3C439.7 502.6 440.4 503 441.1 503.5C441.8 504 442.4 504.7 442.8 505.5C443.2 506.3 443.5 507.2 443.7 508.2H440C439.8 507.2 439.3 506.5 438.6 506C437.9 505.5 437.1 505.3 436.2 505.3C435.3 505.3 434.6 505.5 434 505.8C433.4 506.1 432.9 506.6 432.5 507.2C432.1 507.8 431.9 508.4 431.6 509.1C431.4 509.8 431.3 510.6 431.3 511.4C431.3 512.2 431.4 512.9 431.6 513.6C431.8 514.3 432 514.9 432.5 515.5C432.9 516.1 433.4 516.5 434 516.9C434.6 517.2 435.4 517.4 436.2 517.4C437.5 517.4 438.5 517.1 439.2 516.4C439.9 515.7 440.3 514.8 440.5 513.5H436.6V510.6H444.1V520.2H441.6L441.2 518.2L441 518.1Z" fill="#959998"/>
<path d="M446.3 502.3H450.2V520.1H446.3V502.3Z" fill="#959998"/>
<path d="M452.7 502.3H456.6L464 514.2V502.3H467.7V520.1H463.8L456.4 508.2V520.1H452.7V502.3Z" fill="#959998"/>
<path d="M475.1 502.3H479.1L485.7 520.1H481.7L480.3 516.2H473.7L472.3 520.1H468.4L475.1 502.3ZM474.7 513.2H479.3L477.1 506.7L474.8 513.2H474.7Z" fill="#959998"/>
<path d="M486.5 502.3H490.4V516.8H499V520.1H486.4V502.3H486.5Z" fill="#959998"/>
<path d="M506.9 502.3H514.9C516 502.3 517 502.5 517.7 502.8C518.4 503.1 519.1 503.5 519.6 504.1C520.1 504.6 520.5 505.3 520.7 505.9C520.9 506.6 521 507.3 521 508C521 508.7 520.9 509.4 520.7 510.1C520.5 510.8 520.1 511.4 519.6 511.9C519.1 512.4 518.5 512.9 517.7 513.2C516.9 513.5 516 513.7 514.9 513.7H510.8V520.1H506.9V502.3ZM510.8 510.7H513.8C514.2 510.7 514.7 510.7 515.1 510.6C515.5 510.6 515.9 510.4 516.2 510.2C516.5 510 516.8 509.7 516.9 509.4C517.1 509.1 517.2 508.6 517.2 508C517.2 507.4 517.1 507 516.9 506.6C516.7 506.3 516.5 506 516.2 505.8C515.9 505.6 515.5 505.5 515.1 505.4C514.7 505.3 514.2 505.3 513.8 505.3H510.8V510.6V510.7Z" fill="white"/>
<path d="M522.2 502.3H531.8C532.6 502.3 533.3 502.4 533.9 502.7C534.5 503 535.1 503.3 535.5 503.8C535.9 504.2 536.3 504.8 536.6 505.4C536.8 506 537 506.6 537 507.3C537 508.4 536.8 509.2 536.4 510C536 510.7 535.2 511.4 534.3 511.7C534.8 511.9 535.2 512.1 535.5 512.3C535.8 512.5 536.1 512.9 536.3 513.3C536.5 513.7 536.6 514.1 536.7 514.5C536.8 514.9 536.9 515.4 536.9 515.8C536.9 516.2 536.9 516.4 536.9 516.8C536.9 517.2 536.9 517.6 537 518C537 518.4 537.1 518.8 537.2 519.1C537.3 519.5 537.4 519.8 537.6 520H533.7C533.6 519.7 533.5 519.4 533.4 519.1C533.4 518.8 533.3 518.4 533.3 518C533.3 517.6 533.3 517.3 533.2 516.8C533.2 516.4 533.2 516.1 533.1 515.7C533 514.8 532.7 514.1 532.2 513.7C531.7 513.3 531.1 513.1 530.1 513.1H526.2V520H522.3V502.3H522.2ZM526.1 510.4H530.4C531.3 510.4 531.9 510.2 532.4 509.8C532.8 509.4 533.1 508.7 533.1 507.9C533.1 507.1 532.9 506.4 532.4 506C531.9 505.6 531.3 505.4 530.4 505.4H526.1V510.4Z" fill="white"/>
<path d="M554.1 513.3C554.1 515.7 553.4 517.5 552.1 518.7C550.7 519.9 548.9 520.5 546.5 520.5C544.1 520.5 542.2 519.9 540.9 518.7C539.6 517.5 538.9 515.7 538.9 513.3V502.2H542.8V513.3C542.8 513.8 542.8 514.3 542.9 514.7C542.9 515.2 543.2 515.6 543.4 516C543.7 516.4 544 516.6 544.5 516.9C545 517.1 545.6 517.2 546.4 517.2C547.8 517.2 548.7 516.9 549.3 516.3C549.9 515.7 550.1 514.7 550.1 513.4V502.3H554V513.3H554.1Z" fill="white"/>
<path d="M559.1 514.2C559.1 514.8 559.2 515.3 559.4 515.7C559.6 516.1 559.9 516.4 560.3 516.7C560.7 517 561.1 517.1 561.6 517.3C562.1 517.5 562.6 517.5 563.1 517.5C563.6 517.5 563.8 517.5 564.2 517.4C564.6 517.3 565 517.2 565.3 517.1C565.6 517 565.9 516.7 566.2 516.4C566.4 516.1 566.5 515.8 566.5 515.3C566.5 514.8 566.3 514.4 566 514.1C565.7 513.8 565.3 513.6 564.8 513.4C564.3 513.2 563.7 513 563.1 512.9C562.5 512.8 561.8 512.6 561.2 512.4C560.5 512.2 559.9 512 559.3 511.8C558.7 511.6 558.1 511.3 557.6 510.9C557.1 510.5 556.7 510 556.4 509.5C556.1 508.9 555.9 508.2 555.9 507.4C555.9 506.6 556.1 505.7 556.5 505C556.9 504.3 557.4 503.8 558 503.3C558.6 502.8 559.4 502.5 560.1 502.3C560.8 502.1 561.7 502 562.5 502C563.3 502 564.3 502.1 565.2 502.3C566.1 502.5 566.8 502.8 567.5 503.3C568.2 503.8 568.7 504.4 569.1 505.1C569.5 505.8 569.7 506.7 569.7 507.7H565.9C565.9 507.2 565.8 506.7 565.6 506.4C565.4 506.1 565.2 505.8 564.9 505.6C564.6 505.4 564.2 505.3 563.8 505.2C563.4 505.1 562.9 505.1 562.5 505.1C562.1 505.1 561.9 505.1 561.5 505.2C561.2 505.2 560.9 505.4 560.6 505.5C560.3 505.7 560.1 505.9 560 506.1C559.9 506.3 559.8 506.7 559.8 507C559.8 507.3 559.8 507.6 560 507.9C560.1 508.1 560.4 508.3 560.8 508.5C561.2 508.7 561.7 508.9 562.4 509C563.1 509.2 564 509.4 565.1 509.7C565.3 509.7 565.6 509.8 566 509.9C566.3 510 566.7 510.1 567.1 510.3C567.5 510.5 567.9 510.7 568.3 510.9C568.7 511.1 569 511.4 569.4 511.8C569.7 512.2 570 512.6 570.2 513.1C570.4 513.6 570.5 514.2 570.5 514.9C570.5 515.6 570.3 516.5 570 517.2C569.7 517.9 569.2 518.5 568.6 519C568 519.5 567.2 519.9 566.3 520.2C565.4 520.5 564.3 520.6 563.1 520.6C561.9 520.6 561.2 520.5 560.2 520.2C559.2 519.9 558.5 519.6 557.8 519C557.1 518.4 556.5 517.8 556.1 517C555.7 516.2 555.5 515.3 555.5 514.2H559.3H559.1Z" fill="white"/>
<path d="M576.5 502.3H580.5L587.1 520.1H583.1L581.7 516.2H575.1L573.7 520.1H569.8L576.5 502.3ZM576.1 513.2H580.7L578.5 506.7L576.2 513.2H576.1Z" fill="white"/>
<path d="M594.3 502.3H599.8L603.9 514.5L607.8 502.3H613.3V520.1H609.6V507.5L605.2 520.1H602.2L597.8 507.6V520.1H594.1V502.3H594.3Z" fill="#ED6B21"/>
<path d="M616 502.3H619.9V509.7L626.8 502.3H631.7L624.8 509.3L632.4 520H627.5L622.2 512L620 514.3V520H616.1V502.2L616 502.3Z" fill="#ED6B21"/>
<path d="M638.4 516.1H631V512.9L638.6 502.7H641.8V513.2H644.1V516.1H641.8V520.1H638.4V516.1ZM638.4 507.1L633.9 513.2H638.5V507.1H638.4Z" fill="#ED6B21"/>
<path d="M589.203 563.493V565.053H584.891V563.493H589.203ZM590.593 569V567.56L593.959 564.444C594.245 564.167 594.485 563.917 594.679 563.696C594.876 563.474 595.025 563.257 595.127 563.045C595.228 562.829 595.279 562.597 595.279 562.348C595.279 562.071 595.216 561.832 595.09 561.632C594.964 561.429 594.791 561.274 594.573 561.166C594.354 561.055 594.107 561 593.83 561C593.54 561 593.288 561.058 593.073 561.175C592.857 561.292 592.691 561.46 592.574 561.678C592.457 561.897 592.399 562.157 592.399 562.458H590.501C590.501 561.84 590.641 561.303 590.921 560.847C591.201 560.392 591.594 560.039 592.098 559.79C592.603 559.541 593.185 559.416 593.843 559.416C594.521 559.416 595.11 559.536 595.612 559.776C596.116 560.013 596.509 560.343 596.789 560.764C597.069 561.186 597.209 561.669 597.209 562.214C597.209 562.571 597.138 562.923 596.997 563.271C596.858 563.619 596.61 564.005 596.253 564.43C595.896 564.851 595.393 565.358 594.744 565.949L593.363 567.301V567.366H597.334V569H590.593ZM602.489 569.208C601.695 569.205 601.012 569.009 600.439 568.621C599.87 568.234 599.431 567.672 599.124 566.936C598.819 566.201 598.668 565.316 598.671 564.282C598.671 563.251 598.824 562.372 599.128 561.646C599.436 560.92 599.875 560.367 600.444 559.989C601.016 559.607 601.698 559.416 602.489 559.416C603.28 559.416 603.96 559.607 604.529 559.989C605.102 560.37 605.542 560.924 605.85 561.651C606.158 562.374 606.31 563.251 606.307 564.282C606.307 565.319 606.153 566.205 605.845 566.941C605.54 567.677 605.103 568.238 604.534 568.626C603.965 569.014 603.283 569.208 602.489 569.208ZM602.489 567.55C603.031 567.55 603.463 567.278 603.786 566.733C604.109 566.189 604.269 565.371 604.266 564.282C604.266 563.565 604.192 562.968 604.045 562.491C603.9 562.014 603.694 561.655 603.426 561.415C603.161 561.175 602.849 561.055 602.489 561.055C601.95 561.055 601.52 561.324 601.196 561.863C600.873 562.402 600.71 563.208 600.707 564.282C600.707 565.008 600.779 565.615 600.924 566.101C601.072 566.584 601.279 566.947 601.547 567.19C601.815 567.43 602.129 567.55 602.489 567.55ZM607.732 569V567.56L611.098 564.444C611.384 564.167 611.624 563.917 611.818 563.696C612.015 563.474 612.164 563.257 612.266 563.045C612.367 562.829 612.418 562.597 612.418 562.348C612.418 562.071 612.355 561.832 612.229 561.632C612.102 561.429 611.93 561.274 611.712 561.166C611.493 561.055 611.245 561 610.968 561C610.679 561 610.427 561.058 610.211 561.175C609.996 561.292 609.83 561.46 609.713 561.678C609.596 561.897 609.537 562.157 609.537 562.458H607.64C607.64 561.84 607.78 561.303 608.06 560.847C608.34 560.392 608.732 560.039 609.237 559.79C609.742 559.541 610.324 559.416 610.982 559.416C611.659 559.416 612.249 559.536 612.75 559.776C613.255 560.013 613.647 560.343 613.927 560.764C614.208 561.186 614.348 561.669 614.348 562.214C614.348 562.571 614.277 562.923 614.135 563.271C613.997 563.619 613.749 564.005 613.392 564.43C613.035 564.851 612.532 565.358 611.882 565.949L610.502 567.301V567.366H614.472V569H607.732ZM619.415 569.129C618.726 569.129 618.112 569.011 617.573 568.774C617.038 568.534 616.615 568.204 616.304 567.786C615.996 567.364 615.838 566.878 615.828 566.327H617.841C617.853 566.558 617.929 566.761 618.067 566.936C618.209 567.109 618.397 567.243 618.631 567.338C618.864 567.433 619.128 567.481 619.42 567.481C619.725 567.481 619.994 567.427 620.228 567.32C620.462 567.212 620.645 567.063 620.777 566.872C620.91 566.681 620.976 566.461 620.976 566.212C620.976 565.959 620.905 565.736 620.763 565.542C620.625 565.345 620.425 565.191 620.163 565.081C619.905 564.97 619.597 564.914 619.24 564.914H618.358V563.446H619.24C619.541 563.446 619.808 563.394 620.039 563.289C620.272 563.185 620.454 563.04 620.583 562.855C620.713 562.668 620.777 562.449 620.777 562.2C620.777 561.963 620.72 561.755 620.606 561.577C620.496 561.395 620.339 561.254 620.135 561.152C619.935 561.05 619.702 561 619.434 561C619.163 561 618.915 561.049 618.691 561.147C618.466 561.243 618.286 561.38 618.15 561.558C618.015 561.737 617.943 561.946 617.933 562.186H616.018C616.027 561.641 616.182 561.161 616.484 560.746C616.785 560.33 617.192 560.006 617.703 559.772C618.217 559.535 618.797 559.416 619.443 559.416C620.095 559.416 620.666 559.535 621.156 559.772C621.645 560.009 622.025 560.329 622.296 560.732C622.57 561.132 622.705 561.581 622.702 562.08C622.705 562.609 622.541 563.051 622.208 563.405C621.879 563.759 621.45 563.983 620.92 564.079V564.153C621.616 564.242 622.145 564.484 622.508 564.877C622.875 565.268 623.056 565.758 623.053 566.346C623.056 566.884 622.901 567.363 622.587 567.781C622.276 568.2 621.847 568.529 621.299 568.769C620.751 569.009 620.123 569.129 619.415 569.129Z" fill="white"/>
</g>
<defs>
<clipPath id="clip0_1_4">
<rect width="710.1" height="596.7" fill="white"/>
</clipPath>
</defs>
</svg>
