<?xml version="1.0" encoding="UTF-8" standalone="no"?>
<svg
   width="16"
   height="16"
   viewBox="0 0 16 16"
   fill="none"
   version="1.1"
   id="svg1"
   sodipodi:docname="tb_new.svg"
   inkscape:version="1.4.2 (ebf0e940d0, 2025-05-08)"
   xmlns:inkscape="http://www.inkscape.org/namespaces/inkscape"
   xmlns:sodipodi="http://sodipodi.sourceforge.net/DTD/sodipodi-0.dtd"
   xmlns="http://www.w3.org/2000/svg"
   xmlns:svg="http://www.w3.org/2000/svg">
  <defs
     id="defs1" />
  <sodipodi:namedview
     id="namedview1"
     pagecolor="#ffffff"
     bordercolor="#000000"
     borderopacity="0.25"
     inkscape:showpageshadow="2"
     inkscape:pageopacity="0.0"
     inkscape:pagecheckerboard="0"
     inkscape:deskcolor="#d1d1d1"
     inkscape:zoom="49.5625"
     inkscape:cx="7.9899117"
     inkscape:cy="8"
     inkscape:window-width="1920"
     inkscape:window-height="980"
     inkscape:window-x="0"
     inkscape:window-y="32"
     inkscape:window-maximized="1"
     inkscape:current-layer="svg1" />
  <path
     d="M 13 14 V 6 H 9.5 C 8.6719 6 8 5.3281 8 4.5 V 1 H 4 C 3.4469 1 3 1.4469 3 2 V 14 C 3 14.5531 3.4469 15 4 15 H 12 C 12.5531 15 13 14.5531 13 14 Z M 12.9844 5 C 12.9625 4.9125 12.9187 4.8312 12.8531 4.7687 L 9.2312 1.1469 C 9.1656 1.0813 9.0875 1.0375 9 1.0156 V 4.5 C 9 4.775 9.225 5 9.5 5 H 12.9844 Z M 2 2 C 2 0.8969 2.8969 0 4 0 H 8.8781 C 9.275 0 9.6563 0.1594 9.9375 0.4406 L 13.5594 4.0594 C 13.8406 4.3406 14 4.7219 14 5.1188 V 14 C 14 15.1031 13.1031 16 12 16 H 4 C 2.8969 16 2 15.1031 2 14 V 2 Z"
     fill="#808080"
     id="path1"
     style="fill:#ffffff;fill-opacity:1" />
</svg>
