<svg width="14" height="14" viewBox="0 0 14 14" fill="none" xmlns="http://www.w3.org/2000/svg">
<path d="M0.5 5C0.225 5 0 4.775 0 4.5V0.5C0 0.225 0.225 0 0.5 0C0.775 0 1 0.225 1 0.5V3.39375C2.225 1.35938 4.45312 0 7 0C10.8656 0 14 3.13438 14 7C14 10.8656 10.8656 14 7 14C4.50313 14 2.3125 12.6938 1.07188 10.725C0.86875 10.4 1.11563 10 1.5 10C1.6875 10 1.85625 10.1 1.95937 10.2563C3.02812 11.9062 4.8875 13 7 13C10.3125 13 13 10.3125 13 7C13 3.6875 10.3125 1 7 1C4.77812 1 2.84062 2.20625 1.80312 4H4.5C4.775 4 5 4.225 5 4.5C5 4.775 4.775 5 4.5 5H0.5Z" fill="#F7F7F7"/>
</svg>
