<?xml version="1.0" encoding="UTF-8" standalone="no"?>
<svg
   xmlns:ooo="http://xml.openoffice.org/svg/export"
   xmlns:dc="http://purl.org/dc/elements/1.1/"
   xmlns:cc="http://creativecommons.org/ns#"
   xmlns:rdf="http://www.w3.org/1999/02/22-rdf-syntax-ns#"
   xmlns:svg="http://www.w3.org/2000/svg"
   xmlns="http://www.w3.org/2000/svg"
   xmlns:sodipodi="http://sodipodi.sourceforge.net/DTD/sodipodi-0.dtd"
   xmlns:inkscape="http://www.inkscape.org/namespaces/inkscape"
   inkscape:version="1.0 (4035a4fb49, 2020-05-01)"
   sodipodi:docname="i3Al.svg"
   id="svg338"
   version="1.1"
   viewBox="0 0 567.99999 596.69"
   height="596.69"
   width="568">
  <metadata
     id="metadata344">
    <rdf:RDF>
      <cc:Work
         rdf:about="">
        <dc:format>image/svg+xml</dc:format>
        <dc:type
           rdf:resource="http://purl.org/dc/dcmitype/StillImage" />
        <dc:title>MK3_bottom</dc:title>
      </cc:Work>
    </rdf:RDF>
  </metadata>
  <defs
     id="defs342">
    <clipPath
       clipPathUnits="userSpaceOnUse"
       id="presentation_clip_path">
      <rect
         id="rect7"
         height="6460"
         width="6460"
         y="0"
         x="0" />
    </clipPath>
    <clipPath
       clipPathUnits="userSpaceOnUse"
       id="presentation_clip_path_shrink">
      <rect
         id="rect10"
         height="6448"
         width="6448"
         y="6"
         x="6" />
    </clipPath>
    <g
       id="g14"
       ooo:id-list="id3 id4"
       ooo:slide="id1" />
    <g
       transform="scale(0.00048828125,-0.00048828125)"
       id="bullet-char-template(57356)">
      <path
         id="path19"
         d="M 580,1141 L 1163,571 580,0 -4,571 580,1141 Z" />
    </g>
    <g
       transform="scale(0.00048828125,-0.00048828125)"
       id="bullet-char-template(57354)">
      <path
         id="path22"
         d="M 8,1128 L 1137,1128 1137,0 8,0 8,1128 Z" />
    </g>
    <g
       transform="scale(0.00048828125,-0.00048828125)"
       id="bullet-char-template(10146)">
      <path
         id="path25"
         d="M 174,0 L 602,739 174,1481 1456,739 174,0 Z M 1358,739 L 309,1346 659,739 1358,739 Z" />
    </g>
    <g
       transform="scale(0.00048828125,-0.00048828125)"
       id="bullet-char-template(10132)">
      <path
         id="path28"
         d="M 2015,739 L 1276,0 717,0 1260,543 174,543 174,936 1260,936 717,1481 1274,1481 2015,739 Z" />
    </g>
    <g
       transform="scale(0.00048828125,-0.00048828125)"
       id="bullet-char-template(10007)">
      <path
         id="path31"
         d="M 0,-2 C -7,14 -16,27 -25,37 L 356,567 C 262,823 215,952 215,954 215,979 228,992 255,992 264,992 276,990 289,987 310,991 331,999 354,1012 L 381,999 492,748 772,1049 836,1024 860,1049 C 881,1039 901,1025 922,1006 886,937 835,863 770,784 769,783 710,716 594,584 L 774,223 C 774,196 753,168 711,139 L 727,119 C 717,90 699,76 672,76 641,76 570,178 457,381 L 164,-76 C 142,-110 111,-127 72,-127 30,-127 9,-110 8,-76 1,-67 -2,-52 -2,-32 -2,-23 -1,-13 0,-2 Z" />
    </g>
    <g
       transform="scale(0.00048828125,-0.00048828125)"
       id="bullet-char-template(10004)">
      <path
         id="path34"
         d="M 285,-33 C 182,-33 111,30 74,156 52,228 41,333 41,471 41,549 55,616 82,672 116,743 169,778 240,778 293,778 328,747 346,684 L 369,508 C 377,444 397,411 428,410 L 1163,1116 C 1174,1127 1196,1133 1229,1133 1271,1133 1292,1118 1292,1087 L 1292,965 C 1292,929 1282,901 1262,881 L 442,47 C 390,-6 338,-33 285,-33 Z" />
    </g>
    <g
       transform="scale(0.00048828125,-0.00048828125)"
       id="bullet-char-template(9679)">
      <path
         id="path37"
         d="M 813,0 C 632,0 489,54 383,161 276,268 223,411 223,592 223,773 276,916 383,1023 489,1130 632,1184 813,1184 992,1184 1136,1130 1245,1023 1353,916 1407,772 1407,592 1407,412 1353,268 1245,161 1136,54 992,0 813,0 Z" />
    </g>
    <g
       transform="scale(0.00048828125,-0.00048828125)"
       id="bullet-char-template(8226)">
      <path
         id="path40"
         d="M 346,457 C 273,457 209,483 155,535 101,586 74,649 74,723 74,796 101,859 155,911 209,963 273,989 346,989 419,989 480,963 531,910 582,859 608,796 608,723 608,648 583,586 532,535 482,483 420,457 346,457 Z" />
    </g>
    <g
       transform="scale(0.00048828125,-0.00048828125)"
       id="bullet-char-template(8211)">
      <path
         id="path43"
         d="M -4,459 L 1135,459 1135,606 -4,606 -4,459 Z" />
    </g>
    <g
       transform="scale(0.00048828125,-0.00048828125)"
       id="bullet-char-template(61548)">
      <path
         id="path46"
         d="M 173,740 C 173,903 231,1043 346,1159 462,1274 601,1332 765,1332 928,1332 1067,1274 1183,1159 1299,1043 1357,903 1357,740 1357,577 1299,437 1183,322 1067,206 928,148 765,148 601,148 462,206 346,322 231,437 173,577 173,740 Z" />
    </g>
  </defs>
  <sodipodi:namedview
     showguides="false"
     inkscape:current-layer="text1007"
     inkscape:window-maximized="1"
     inkscape:window-y="-8"
     inkscape:window-x="-8"
     inkscape:cy="555.38536"
     inkscape:cx="453.56352"
     inkscape:zoom="2.582974"
     showgrid="false"
     id="namedview340"
     inkscape:window-height="1017"
     inkscape:window-width="1920"
     inkscape:pageshadow="2"
     inkscape:pageopacity="0"
     guidetolerance="10"
     gridtolerance="10"
     objecttolerance="10"
     borderopacity="1"
     bordercolor="#666666"
     pagecolor="#000000"
     inkscape:document-rotation="0"
     inkscape:pagecheckerboard="false"
     inkscape:snap-text-baseline="true" />
  <title
     id="title2">MK3_bottom</title>
  <line
     id="line4"
     stroke-width="1.42"
     stroke-linejoin="round"
     stroke-linecap="round"
     stroke="#ffffff"
     fill="none"
     y2="595.97998"
     x2="0.70999998"
     y1="0.70999998"
     x1="0.70999998" />
  <line
     id="line6"
     stroke-width="1.42"
     stroke-linejoin="round"
     stroke-linecap="round"
     stroke="#ffffff"
     fill="none"
     y2="581.81"
     x2="142.44"
     y1="0.70999998"
     x1="142.44" />
  <line
     id="line8"
     stroke-width="1.42"
     stroke-linejoin="round"
     stroke-linecap="round"
     stroke="#ffffff"
     fill="none"
     y2="581.81"
     x2="284.17001"
     y1="0.70999998"
     x1="284.17001" />
  <line
     id="line12"
     stroke-width="1.26699"
     stroke-linejoin="round"
     stroke-linecap="round"
     stroke="#ffffff"
     fill="none"
     y2="581.81"
     x2="567.64001"
     y1="581.81"
     x1="14.25" />
  <line
     id="line14"
     stroke-width="1.26989"
     stroke-linejoin="round"
     stroke-linecap="round"
     stroke="#ffffff"
     fill="none"
     y2="595.97998"
     x2="567.31427"
     y1="595.97998"
     x1="0.56501138" />
  <line
     id="line16"
     stroke-width="1.26623"
     stroke-linejoin="round"
     stroke-linecap="round"
     stroke="#ffffff"
     fill="none"
     y2="440.07999"
     x2="566.83789"
     y1="440.07999"
     x1="14.104672" />
  <line
     id="line18"
     stroke-width="1.2664"
     stroke-linejoin="round"
     stroke-linecap="round"
     stroke="#ffffff"
     fill="none"
     y2="298.35001"
     x2="566.97528"
     y1="298.35001"
     x1="14.104706" />
  <line
     id="line20"
     stroke-width="1.2664"
     stroke-linejoin="round"
     stroke-linecap="round"
     stroke="#ffffff"
     fill="none"
     y2="156.61"
     x2="566.97528"
     y1="156.61"
     x1="14.104706" />
  <line
     id="line22"
     stroke-width="1.2664"
     stroke-linejoin="round"
     stroke-linecap="round"
     stroke="#ffffff"
     fill="none"
     y2="14.88"
     x2="566.97528"
     y1="14.88"
     x1="14.104706" />
  <line
     id="line24"
     stroke-width="1.27009"
     stroke-linejoin="round"
     stroke-linecap="round"
     stroke="#ffffff"
     fill="none"
     y2="0.70999998"
     x2="0.70999998"
     y1="0.70999998"
     x1="567.64001" />
  <line
     id="line26"
     stroke-width="1.50215"
     stroke-linejoin="round"
     stroke-linecap="round"
     stroke="#ffffff"
     fill="none"
     y2="558.90887"
     x2="425.91699"
     y1="0.77231139"
     x1="425.91699" />
  <line
     id="line28"
     stroke-width="0.309134"
     stroke-linejoin="round"
     stroke-linecap="round"
     stroke="#ffffff"
     fill="none"
     y2="581.81"
     x2="425.91"
     y1="576.14594"
     x1="425.91" />
  <line
     id="line30"
     stroke-width="1.53292"
     stroke-linejoin="round"
     stroke-linecap="round"
     stroke="#ffffff"
     fill="none"
     y2="581.81"
     x2="567.64001"
     y1="0.70999998"
     x1="567.64001" />
  <line
     id="line36"
     stroke-width="0.37"
     stroke-linejoin="round"
     stroke-linecap="round"
     stroke="#ffffff"
     fill="none"
     y2="581.81"
     x2="85.75"
     y1="0.70999998"
     x1="85.75" />
  <line
     id="line38"
     stroke-width="0.37"
     stroke-linejoin="round"
     stroke-linecap="round"
     stroke="#ffffff"
     fill="none"
     y2="581.81"
     x2="114.09"
     y1="0.70999998"
     x1="114.09" />
  <line
     id="line40"
     stroke-width="0.37"
     stroke-linejoin="round"
     stroke-linecap="round"
     stroke="#ffffff"
     fill="none"
     y2="581.81"
     x2="170.78999"
     y1="0.70999998"
     x1="170.78999" />
  <line
     id="line42"
     stroke-width="0.37"
     stroke-linejoin="round"
     stroke-linecap="round"
     stroke="#ffffff"
     fill="none"
     y2="581.81"
     x2="199.13"
     y1="0.70999998"
     x1="199.13" />
  <line
     id="line44"
     stroke-width="0.37"
     stroke-linejoin="round"
     stroke-linecap="round"
     stroke="#ffffff"
     fill="none"
     y2="581.81"
     x2="227.48"
     y1="0.70999998"
     x1="227.48" />
  <line
     id="line46"
     stroke-width="0.37"
     stroke-linejoin="round"
     stroke-linecap="round"
     stroke="#ffffff"
     fill="none"
     y2="581.81"
     x2="255.83"
     y1="0.70999998"
     x1="255.83" />
  <line
     id="line48"
     stroke-width="0.37"
     stroke-linejoin="round"
     stroke-linecap="round"
     stroke="#ffffff"
     fill="none"
     y2="581.81"
     x2="312.51999"
     y1="0.70999998"
     x1="312.51999" />
  <line
     id="line50"
     stroke-width="0.37"
     stroke-linejoin="round"
     stroke-linecap="round"
     stroke="#ffffff"
     fill="none"
     y2="581.81"
     x2="340.87"
     y1="0.70999998"
     x1="340.87" />
  <line
     id="line54"
     stroke-width="0.37"
     stroke-linejoin="round"
     stroke-linecap="round"
     stroke="#ffffff"
     fill="none"
     y2="581.81"
     x2="29.059999"
     y1="0.70999998"
     x1="29.059999" />
  <line
     id="line56"
     stroke-width="0.37"
     stroke-linejoin="round"
     stroke-linecap="round"
     stroke="#ffffff"
     fill="none"
     y2="581.81"
     x2="57.400002"
     y1="0.70999998"
     x1="57.400002" />
  <line
     id="line58"
     stroke-width="0.330216"
     stroke-linejoin="round"
     stroke-linecap="round"
     stroke="#ffffff"
     fill="none"
     y2="468.42999"
     x2="567.8819"
     y1="468.42999"
     x1="14.212386" />
  <line
     id="line60"
     stroke-width="0.330216"
     stroke-linejoin="round"
     stroke-linecap="round"
     stroke="#ffffff"
     fill="none"
     y2="496.76999"
     x2="567.88208"
     y1="496.76999"
     x1="14.212363" />
  <line
     id="line62"
     stroke-width="0.330215"
     stroke-linejoin="round"
     stroke-linecap="round"
     stroke="#ffffff"
     fill="none"
     y2="525.12"
     x2="567.88184"
     y1="525.12"
     x1="14.212363" />
  <line
     id="line64"
     stroke-width="0.329917"
     stroke-linejoin="round"
     stroke-linecap="round"
     stroke="#ffffff"
     fill="none"
     y2="553.46002"
     x2="566.72107"
     y1="553.46002"
     x1="14.05091" />
  <line
     id="line66"
     stroke-width="0.330226"
     stroke-linejoin="round"
     stroke-linecap="round"
     stroke="#ffffff"
     fill="none"
     y2="411.73001"
     x2="567.91766"
     y1="411.73001"
     x1="14.212364" />
  <line
     id="line68"
     stroke-width="0.330226"
     stroke-linejoin="round"
     stroke-linecap="round"
     stroke="#ffffff"
     fill="none"
     y2="383.39001"
     x2="567.91766"
     y1="383.39001"
     x1="14.212364" />
  <line
     id="line70"
     stroke-width="0.330226"
     stroke-linejoin="round"
     stroke-linecap="round"
     stroke="#ffffff"
     fill="none"
     y2="355.04001"
     x2="567.91766"
     y1="355.04001"
     x1="14.212364" />
  <line
     id="line72"
     stroke-width="0.330226"
     stroke-linejoin="round"
     stroke-linecap="round"
     stroke="#ffffff"
     fill="none"
     y2="326.69"
     x2="567.91766"
     y1="326.69"
     x1="14.212364" />
  <line
     id="line74"
     stroke-width="0.330226"
     stroke-linejoin="round"
     stroke-linecap="round"
     stroke="#ffffff"
     fill="none"
     y2="270"
     x2="567.91766"
     y1="270"
     x1="14.212364" />
  <line
     id="line76"
     stroke-width="0.330226"
     stroke-linejoin="round"
     stroke-linecap="round"
     stroke="#ffffff"
     fill="none"
     y2="241.64999"
     x2="567.91766"
     y1="241.64999"
     x1="14.212364" />
  <line
     id="line78"
     stroke-width="0.330226"
     stroke-linejoin="round"
     stroke-linecap="round"
     stroke="#ffffff"
     fill="none"
     y2="213.31"
     x2="567.91766"
     y1="213.31"
     x1="14.212364" />
  <line
     id="line80"
     stroke-width="0.330226"
     stroke-linejoin="round"
     stroke-linecap="round"
     stroke="#ffffff"
     fill="none"
     y2="184.96001"
     x2="567.91766"
     y1="184.96001"
     x1="14.212364" />
  <line
     id="line82"
     stroke-width="0.330226"
     stroke-linejoin="round"
     stroke-linecap="round"
     stroke="#ffffff"
     fill="none"
     y2="128.27"
     x2="567.91766"
     y1="128.27"
     x1="14.212364" />
  <line
     id="line84"
     stroke-width="0.330236"
     stroke-linejoin="round"
     stroke-linecap="round"
     stroke="#ffffff"
     fill="none"
     y2="99.919998"
     x2="567.91766"
     y1="99.919998"
     x1="14.212376" />
  <line
     id="line86"
     stroke-width="0.330226"
     stroke-linejoin="round"
     stroke-linecap="round"
     stroke="#ffffff"
     fill="none"
     y2="71.57"
     x2="567.91766"
     y1="71.57"
     x1="14.212364" />
  <line
     id="line88"
     stroke-width="0.330226"
     stroke-linejoin="round"
     stroke-linecap="round"
     stroke="#ffffff"
     fill="none"
     y2="43.419998"
     x2="567.91736"
     y1="43.419998"
     x1="14.212113"
     style="fill:#ff00ff" />
  <line
     id="line90"
     stroke-width="0.391403"
     stroke-linejoin="round"
     stroke-linecap="round"
     stroke="#ffffff"
     fill="none"
     y2="558.90887"
     x2="369.23099"
     y1="0.77231139"
     x1="369.23099" />
  <line
     id="line92"
     stroke-width="0.309134"
     stroke-linejoin="round"
     stroke-linecap="round"
     stroke="#ffffff"
     fill="none"
     y2="581.81"
     x2="369.20999"
     y1="576.14594"
     x1="369.20999" />
  <line
     id="line94"
     stroke-width="0.391403"
     stroke-linejoin="round"
     stroke-linecap="round"
     stroke="#ffffff"
     fill="none"
     y2="558.90887"
     x2="397.57401"
     y1="0.77231139"
     x1="397.57401" />
  <line
     id="line96"
     stroke-width="0.309134"
     stroke-linejoin="round"
     stroke-linecap="round"
     stroke="#ffffff"
     fill="none"
     y2="581.81"
     x2="397.56"
     y1="576.14594"
     x1="397.56" />
  <line
     id="line98"
     stroke-width="0.391403"
     stroke-linejoin="round"
     stroke-linecap="round"
     stroke="#ffffff"
     fill="none"
     y2="558.90887"
     x2="454.25"
     y1="0.77231139"
     x1="454.25" />
  <line
     id="line100"
     stroke-width="0.309134"
     stroke-linejoin="round"
     stroke-linecap="round"
     stroke="#ffffff"
     fill="none"
     y2="581.81"
     x2="454.25"
     y1="576.14594"
     x1="454.25" />
  <line
     id="line102"
     stroke-width="0.391403"
     stroke-linejoin="round"
     stroke-linecap="round"
     stroke="#ffffff"
     fill="none"
     y2="558.90887"
     x2="482.59302"
     y1="0.77231139"
     x1="482.59302" />
  <line
     id="line104"
     stroke-width="0.309134"
     stroke-linejoin="round"
     stroke-linecap="round"
     stroke="#ffffff"
     fill="none"
     y2="581.81"
     x2="482.60001"
     y1="576.14594"
     x1="482.60001" />
  <line
     id="line106"
     stroke-width="0.391403"
     stroke-linejoin="round"
     stroke-linecap="round"
     stroke="#ffffff"
     fill="none"
     y2="558.90887"
     x2="510.92599"
     y1="0.77231139"
     x1="510.92599" />
  <line
     id="line108"
     stroke-width="0.309134"
     stroke-linejoin="round"
     stroke-linecap="round"
     stroke="#ffffff"
     fill="none"
     y2="581.81"
     x2="510.94"
     y1="576.14594"
     x1="510.94" />
  <line
     id="line110"
     stroke-width="0.391403"
     stroke-linejoin="round"
     stroke-linecap="round"
     stroke="#ffffff"
     fill="none"
     y2="558.90887"
     x2="539.26892"
     y1="0.77231139"
     x1="539.26892" />
  <line
     id="line112"
     stroke-width="0.309134"
     stroke-linejoin="round"
     stroke-linecap="round"
     stroke="#ffffff"
     fill="none"
     y2="581.81"
     x2="539.28998"
     y1="576.14594"
     x1="539.28998" />
  <path
     id="path132"
     fill="#ffffff"
     transform="translate(0.14,0.14)"
     d="m 27,588.28 a 3.33,3.33 0 0 0 0.56,0 2.26,2.26 0 0 0 0.5,-0.16 1.32,1.32 0 0 0 0.37,-0.29 0.92,0.92 0 0 0 0.21,-0.43 h 0.74 v 5.6 h -1 v -4 H 27 Z" />
  <path
     id="path134"
     fill="#ffffff"
     transform="translate(0.14,0.14)"
     d="m 58.7,593 h -3.83 a 2.35,2.35 0 0 1 0.34,-1.22 3.21,3.21 0 0 1 0.9,-0.9 l 0.56,-0.39 a 4.56,4.56 0 0 0 0.55,-0.4 2.56,2.56 0 0 0 0.41,-0.47 1.23,1.23 0 0 0 0.17,-0.58 2.11,2.11 0 0 0 0,-0.33 0.83,0.83 0 0 0 -0.14,-0.32 0.76,0.76 0 0 0 -0.29,-0.24 1,1 0 0 0 -0.48,-0.11 0.88,0.88 0 0 0 -0.45,0.11 0.83,0.83 0 0 0 -0.29,0.3 1.43,1.43 0 0 0 -0.16,0.44 2.53,2.53 0 0 0 -0.06,0.56 H 55 a 2.93,2.93 0 0 1 0.12,-0.86 1.91,1.91 0 0 1 0.37,-0.69 1.83,1.83 0 0 1 0.61,-0.45 2.16,2.16 0 0 1 1.68,0 1.64,1.64 0 0 1 0.56,0.43 1.56,1.56 0 0 1 0.3,0.55 2.05,2.05 0 0 1 0.09,0.58 1.74,1.74 0 0 1 -0.11,0.61 2.06,2.06 0 0 1 -0.28,0.5 2.63,2.63 0 0 1 -0.4,0.42 l -0.46,0.36 -0.48,0.32 -0.45,0.3 a 2.72,2.72 0 0 0 -0.35,0.32 0.91,0.91 0 0 0 -0.21,0.35 h 2.71 z" />
  <path
     id="path136"
     fill="#ffffff"
     transform="translate(0.14,0.14)"
     d="m 84.73,589.67 h 0.45 a 1.57,1.57 0 0 0 0.4,-0.14 0.86,0.86 0 0 0 0.29,-0.28 0.83,0.83 0 0 0 0.1,-0.43 0.75,0.75 0 0 0 -0.24,-0.58 1,1 0 0 0 -1,-0.12 0.89,0.89 0 0 0 -0.29,0.26 1.14,1.14 0 0 0 -0.17,0.37 1.51,1.51 0 0 0 0,0.42 h -0.91 a 2.39,2.39 0 0 1 0.15,-0.76 2,2 0 0 1 0.37,-0.6 1.59,1.59 0 0 1 0.58,-0.4 1.81,1.81 0 0 1 0.76,-0.15 2.31,2.31 0 0 1 0.64,0.1 1.89,1.89 0 0 1 0.57,0.28 1.31,1.31 0 0 1 0.4,0.47 1.28,1.28 0 0 1 0.16,0.65 1.36,1.36 0 0 1 -0.2,0.74 1,1 0 0 1 -0.6,0.46 v 0 a 1.13,1.13 0 0 1 0.75,0.48 1.7,1.7 0 0 1 0.11,1.64 1.6,1.6 0 0 1 -0.43,0.53 1.91,1.91 0 0 1 -0.63,0.34 2.43,2.43 0 0 1 -0.77,0.12 2.23,2.23 0 0 1 -0.85,-0.14 1.68,1.68 0 0 1 -0.61,-0.39 1.83,1.83 0 0 1 -0.37,-0.62 2.85,2.85 0 0 1 -0.14,-0.8 h 0.92 a 1.25,1.25 0 0 0 0.25,0.85 1,1 0 0 0 0.8,0.34 1.12,1.12 0 0 0 0.77,-0.26 0.93,0.93 0 0 0 0.31,-0.74 1,1 0 0 0 -0.13,-0.52 0.87,0.87 0 0 0 -0.34,-0.29 1.16,1.16 0 0 0 -0.47,-0.12 3.09,3.09 0 0 0 -0.53,0 z" />
  <path
     id="path138"
     fill="#ffffff"
     transform="translate(0.14,0.14)"
     d="m 115.3,591.62 h -0.72 V 593 h -0.87 v -1.33 h -2.4 v -0.9 l 2.4,-3.37 h 0.87 v 3.55 h 0.72 z M 112,590.9 h 1.69 v -2.46 0 z" />
  <path
     id="path140"
     fill="#ffffff"
     transform="translate(0.14,0.14)"
     d="m 140.58,587.35 h 2.9 v 0.81 h -2.21 l -0.29,1.43 v 0 a 1.19,1.19 0 0 1 0.47,-0.32 1.65,1.65 0 0 1 0.57,-0.11 2,2 0 0 1 0.74,0.14 1.45,1.45 0 0 1 0.55,0.39 1.62,1.62 0 0 1 0.34,0.6 2.25,2.25 0 0 1 0.12,0.74 2.49,2.49 0 0 1 -0.11,0.7 2.13,2.13 0 0 1 -0.34,0.65 1.82,1.82 0 0 1 -1.49,0.66 2.57,2.57 0 0 1 -0.75,-0.1 1.84,1.84 0 0 1 -0.62,-0.33 1.7,1.7 0 0 1 -0.42,-0.53 1.87,1.87 0 0 1 -0.17,-0.74 h 0.91 a 1,1 0 0 0 0.32,0.7 1,1 0 0 0 0.72,0.24 1.14,1.14 0 0 0 0.48,-0.09 0.8,0.8 0 0 0 0.33,-0.27 1,1 0 0 0 0.17,-0.39 1.86,1.86 0 0 0 0.06,-0.48 1.31,1.31 0 0 0 -0.07,-0.44 1,1 0 0 0 -0.19,-0.38 0.93,0.93 0 0 0 -0.33,-0.25 1.06,1.06 0 0 0 -0.48,-0.1 1.41,1.41 0 0 0 -0.54,0.11 0.65,0.65 0 0 0 -0.36,0.4 H 140 Z" />
  <path
     id="path142"
     fill="#ffffff"
     transform="translate(0.14,0.14)"
     d="m 171,588.76 a 0.85,0.85 0 0 0 -0.24,-0.55 0.78,0.78 0 0 0 -0.57,-0.22 0.94,0.94 0 0 0 -0.43,0.1 1,1 0 0 0 -0.31,0.24 1.68,1.68 0 0 0 -0.2,0.35 2.77,2.77 0 0 0 -0.12,0.41 c 0,0.15 0,0.29 -0.07,0.43 v 0.4 0 a 1.17,1.17 0 0 1 0.51,-0.5 1.53,1.53 0 0 1 0.7,-0.16 2,2 0 0 1 0.75,0.14 1.69,1.69 0 0 1 0.55,0.4 1.79,1.79 0 0 1 0.35,0.6 2.21,2.21 0 0 1 0.12,0.74 2.13,2.13 0 0 1 -0.13,0.76 2,2 0 0 1 -0.38,0.61 1.87,1.87 0 0 1 -0.59,0.4 1.9,1.9 0 0 1 -0.76,0.14 2.06,2.06 0 0 1 -1,-0.22 1.7,1.7 0 0 1 -0.62,-0.63 2.76,2.76 0 0 1 -0.32,-0.93 6.88,6.88 0 0 1 -0.09,-1.15 5,5 0 0 1 0.11,-1 3,3 0 0 1 0.36,-0.94 1.93,1.93 0 0 1 0.65,-0.68 1.76,1.76 0 0 1 1,-0.27 1.68,1.68 0 0 1 0.63,0.12 1.6,1.6 0 0 1 0.52,0.31 1.5,1.5 0 0 1 0.38,0.48 1.58,1.58 0 0 1 0.16,0.62 z m -0.88,3.54 a 0.89,0.89 0 0 0 0.44,-0.1 0.83,0.83 0 0 0 0.3,-0.26 0.93,0.93 0 0 0 0.19,-0.37 1.61,1.61 0 0 0 0.06,-0.44 1.54,1.54 0 0 0 -0.06,-0.43 0.89,0.89 0 0 0 -0.19,-0.36 0.81,0.81 0 0 0 -0.3,-0.25 0.89,0.89 0 0 0 -0.44,-0.1 1,1 0 0 0 -0.43,0.09 1,1 0 0 0 -0.32,0.25 1.13,1.13 0 0 0 -0.19,0.36 1.62,1.62 0 0 0 -0.07,0.44 1.5,1.5 0 0 0 0.07,0.44 1.23,1.23 0 0 0 0.19,0.38 1,1 0 0 0 0.32,0.26 1,1 0 0 0 0.4,0.09 z" />
  <path
     id="path144"
     fill="#ffffff"
     transform="translate(0.14,0.14)"
     d="m 196.57,587.35 h 3.84 v 0.76 a 8.63,8.63 0 0 0 -0.8,1 7.28,7.28 0 0 0 -0.63,1.13 6.93,6.93 0 0 0 -0.44,1.26 8.62,8.62 0 0 0 -0.22,1.42 h -1 a 6.54,6.54 0 0 1 0.23,-1.31 8.27,8.27 0 0 1 0.46,-1.26 9.7,9.7 0 0 1 0.66,-1.17 10.46,10.46 0 0 1 0.81,-1.05 h -2.91 z" />
  <path
     id="path146"
     fill="#ffffff"
     transform="translate(0.14,0.14)"
     d="m 226.86,593.06 a 2.45,2.45 0 0 1 -0.78,-0.12 1.73,1.73 0 0 1 -0.63,-0.34 1.51,1.51 0 0 1 -0.45,-0.6 1.78,1.78 0 0 1 -0.15,-0.74 1.45,1.45 0 0 1 0.27,-0.89 1.36,1.36 0 0 1 0.75,-0.48 v 0 a 1.28,1.28 0 0 1 -0.59,-0.45 1.26,1.26 0 0 1 -0.2,-0.71 1.43,1.43 0 0 1 0.45,-1.12 2.25,2.25 0 0 1 2.59,0 1.43,1.43 0 0 1 0.45,1.12 1.26,1.26 0 0 1 -0.2,0.71 1.28,1.28 0 0 1 -0.59,0.45 v 0 a 1.36,1.36 0 0 1 0.75,0.48 1.45,1.45 0 0 1 0.27,0.89 1.78,1.78 0 0 1 -0.15,0.74 1.51,1.51 0 0 1 -0.41,0.56 1.73,1.73 0 0 1 -0.63,0.34 2.47,2.47 0 0 1 -0.75,0.16 z m 0,-0.72 a 1.13,1.13 0 0 0 0.77,-0.27 1,1 0 0 0 0.3,-0.77 0.89,0.89 0 0 0 -0.3,-0.72 1.26,1.26 0 0 0 -1.53,0 0.89,0.89 0 0 0 -0.3,0.72 1,1 0 0 0 0.3,0.77 1.12,1.12 0 0 0 0.76,0.27 z m 0,-4.39 a 0.91,0.91 0 0 0 -0.62,0.23 0.88,0.88 0 0 0 0,1.24 1,1 0 0 0 1.27,0 0.88,0.88 0 0 0 0,-1.24 0.92,0.92 0 0 0 -0.65,-0.18 z" />
  <path
     id="path148"
     fill="#ffffff"
     transform="translate(0.14,0.14)"
     d="m 254.41,591.53 a 0.87,0.87 0 0 0 0.24,0.56 0.81,0.81 0 0 0 0.58,0.21 0.83,0.83 0 0 0 0.58,-0.19 1.31,1.31 0 0 0 0.34,-0.49 2.17,2.17 0 0 0 0.17,-0.63 c 0,-0.22 0.05,-0.42 0.07,-0.61 v 0 a 1.33,1.33 0 0 1 -0.5,0.5 1.55,1.55 0 0 1 -0.71,0.17 1.85,1.85 0 0 1 -0.72,-0.14 1.68,1.68 0 0 1 -0.56,-0.38 1.83,1.83 0 0 1 -0.36,-0.59 2.36,2.36 0 0 1 -0.13,-0.78 2.33,2.33 0 0 1 0.13,-0.76 1.84,1.84 0 0 1 0.38,-0.61 1.62,1.62 0 0 1 0.61,-0.4 2.09,2.09 0 0 1 0.81,-0.15 1.92,1.92 0 0 1 1,0.23 1.52,1.52 0 0 1 0.6,0.63 2.75,2.75 0 0 1 0.31,0.93 7,7 0 0 1 0.09,1.15 5,5 0 0 1 -0.11,1 3.14,3.14 0 0 1 -0.35,0.93 2.08,2.08 0 0 1 -0.66,0.69 1.74,1.74 0 0 1 -1,0.26 1.69,1.69 0 0 1 -0.64,-0.11 1.71,1.71 0 0 1 -0.52,-0.31 1.55,1.55 0 0 1 -0.53,-1.11 z m 0.87,-3.54 a 1,1 0 0 0 -0.43,0.1 0.81,0.81 0 0 0 -0.3,0.25 1.16,1.16 0 0 0 -0.18,0.37 1.54,1.54 0 0 0 -0.06,0.43 1.56,1.56 0 0 0 0.06,0.44 1.11,1.11 0 0 0 0.18,0.38 1.08,1.08 0 0 0 0.3,0.26 1,1 0 0 0 0.43,0.1 0.93,0.93 0 0 0 0.45,-0.1 0.9,0.9 0 0 0 0.32,-0.26 1.35,1.35 0 0 0 0.19,-0.38 1.56,1.56 0 0 0 0.06,-0.44 1.54,1.54 0 0 0 -0.06,-0.43 1.43,1.43 0 0 0 -0.19,-0.37 1,1 0 0 0 -0.32,-0.25 1.06,1.06 0 0 0 -0.45,-0.09 z" />
  <path
     id="path150"
     fill="#ffffff"
     transform="translate(0.14,0.14)"
     d="m 278.65,588.28 a 3.43,3.43 0 0 0 0.56,0 2.17,2.17 0 0 0 0.49,-0.16 1.24,1.24 0 0 0 0.38,-0.29 0.92,0.92 0 0 0 0.21,-0.43 H 281 v 5.6 h -1 v -4 h -1.38 z" />
  <path
     id="path152"
     fill="#ffffff"
     transform="translate(0.14,0.14)"
     d="m 284.91,587.23 a 1.67,1.67 0 0 1 1,0.28 1.86,1.86 0 0 1 0.59,0.71 3.13,3.13 0 0 1 0.29,0.94 7,7 0 0 1 0,2 3.13,3.13 0 0 1 -0.29,0.94 1.94,1.94 0 0 1 -0.59,0.71 1.67,1.67 0 0 1 -1,0.27 1.7,1.7 0 0 1 -1,-0.27 1.94,1.94 0 0 1 -0.59,-0.71 3.13,3.13 0 0 1 -0.29,-0.94 7,7 0 0 1 0,-2 3.13,3.13 0 0 1 0.29,-0.94 1.86,1.86 0 0 1 0.59,-0.71 1.7,1.7 0 0 1 1,-0.28 z m 0,5.07 a 0.7,0.7 0 0 0 0.49,-0.17 1.12,1.12 0 0 0 0.32,-0.46 2.69,2.69 0 0 0 0.16,-0.69 6.91,6.91 0 0 0 0,-1.66 2.52,2.52 0 0 0 -0.16,-0.68 1.09,1.09 0 0 0 -0.32,-0.47 0.71,0.71 0 0 0 -0.49,-0.18 0.74,0.74 0 0 0 -0.51,0.18 1.17,1.17 0 0 0 -0.31,0.47 3,3 0 0 0 -0.16,0.68 6.91,6.91 0 0 0 0,1.66 3.19,3.19 0 0 0 0.16,0.69 1.2,1.2 0 0 0 0.31,0.46 0.73,0.73 0 0 0 0.51,0.17 z" />
  <path
     id="path154"
     fill="#ffffff"
     transform="translate(0.14,0.14)"
     d="m 307.81,588.28 a 3.43,3.43 0 0 0 0.56,0 2.35,2.35 0 0 0 0.49,-0.16 1.37,1.37 0 0 0 0.38,-0.29 0.9,0.9 0 0 0 0.2,-0.43 h 0.75 v 5.6 h -1 v -4 h -1.38 z" />
  <path
     id="path156"
     fill="#ffffff"
     transform="translate(0.14,0.14)"
     d="m 312.26,588.28 a 3.43,3.43 0 0 0 0.56,0 2.17,2.17 0 0 0 0.49,-0.16 1.24,1.24 0 0 0 0.38,-0.29 0.9,0.9 0 0 0 0.2,-0.43 h 0.75 v 5.6 h -1 v -4 h -1.38 z" />
  <path
     id="path158"
     fill="#ffffff"
     transform="translate(0.14,0.14)"
     d="m 335.34,588.28 a 3.33,3.33 0 0 0 0.56,0 2.26,2.26 0 0 0 0.5,-0.16 1.32,1.32 0 0 0 0.37,-0.29 0.83,0.83 0 0 0 0.21,-0.43 h 0.74 v 5.6 h -1 v -4 h -1.38 z" />
  <path
     id="path160"
     fill="#ffffff"
     transform="translate(0.14,0.14)"
     d="m 343.51,593 h -3.83 a 2.35,2.35 0 0 1 0.34,-1.22 3.21,3.21 0 0 1 0.9,-0.9 l 0.57,-0.39 a 4.44,4.44 0 0 0 0.54,-0.4 2.23,2.23 0 0 0 0.41,-0.47 1.13,1.13 0 0 0 0.17,-0.58 1.35,1.35 0 0 0 0,-0.33 0.83,0.83 0 0 0 -0.14,-0.32 0.7,0.7 0 0 0 -0.29,-0.24 1,1 0 0 0 -0.48,-0.11 0.88,0.88 0 0 0 -0.45,0.11 0.83,0.83 0 0 0 -0.29,0.3 1.75,1.75 0 0 0 -0.16,0.44 4.8,4.8 0 0 0 -0.06,0.56 h -0.91 a 2.93,2.93 0 0 1 0.12,-0.86 1.92,1.92 0 0 1 0.38,-0.69 1.69,1.69 0 0 1 0.6,-0.45 2,2 0 0 1 0.83,-0.17 2,2 0 0 1 0.86,0.17 1.7,1.7 0 0 1 0.55,0.43 1.56,1.56 0 0 1 0.3,0.55 2.05,2.05 0 0 1 0.09,0.58 1.74,1.74 0 0 1 -0.1,0.61 2.46,2.46 0 0 1 -0.28,0.5 4,4 0 0 1 -0.4,0.42 l -0.47,0.36 -0.48,0.32 c -0.16,0.1 -0.31,0.2 -0.44,0.3 a 2.27,2.27 0 0 0 -0.36,0.32 0.91,0.91 0 0 0 -0.21,0.35 h 2.73 z" />
  <path
     id="path162"
     fill="#ffffff"
     transform="translate(0.14,0.14)"
     d="m 363.69,588.28 a 3.43,3.43 0 0 0 0.56,0 2.17,2.17 0 0 0 0.49,-0.16 1.24,1.24 0 0 0 0.38,-0.29 0.9,0.9 0 0 0 0.2,-0.43 h 0.75 v 5.6 h -1 v -4 h -1.38 z" />
  <path
     id="path164"
     fill="#ffffff"
     transform="translate(0.14,0.14)"
     d="m 369.54,589.67 h 0.45 a 1.45,1.45 0 0 0 0.4,-0.14 0.78,0.78 0 0 0 0.29,-0.28 0.83,0.83 0 0 0 0.11,-0.43 0.76,0.76 0 0 0 -0.25,-0.58 0.93,0.93 0 0 0 -0.63,-0.22 0.86,0.86 0 0 0 -0.41,0.1 0.83,0.83 0 0 0 -0.3,0.26 1.4,1.4 0 0 0 -0.17,0.37 1.51,1.51 0 0 0 0,0.42 h -0.91 a 2.39,2.39 0 0 1 0.15,-0.76 1.86,1.86 0 0 1 0.38,-0.6 1.47,1.47 0 0 1 0.57,-0.4 1.84,1.84 0 0 1 0.76,-0.15 2.31,2.31 0 0 1 0.64,0.1 1.89,1.89 0 0 1 0.57,0.28 1.44,1.44 0 0 1 0.41,0.47 1.38,1.38 0 0 1 0.15,0.65 1.45,1.45 0 0 1 -0.19,0.74 1.09,1.09 0 0 1 -0.6,0.46 v 0 a 1.09,1.09 0 0 1 0.74,0.48 1.7,1.7 0 0 1 0.11,1.64 1.48,1.48 0 0 1 -0.43,0.53 1.91,1.91 0 0 1 -0.63,0.34 2.42,2.42 0 0 1 -0.76,0.12 2.28,2.28 0 0 1 -0.86,-0.14 1.56,1.56 0 0 1 -0.6,-0.39 1.7,1.7 0 0 1 -0.38,-0.62 2.53,2.53 0 0 1 -0.13,-0.8 h 0.91 a 1.25,1.25 0 0 0 0.25,0.85 1,1 0 0 0 0.81,0.34 1.1,1.1 0 0 0 0.76,-0.26 1.06,1.06 0 0 0 0.18,-1.26 0.84,0.84 0 0 0 -0.33,-0.29 1.21,1.21 0 0 0 -0.47,-0.12 3.21,3.21 0 0 0 -0.54,0 z" />
  <path
     id="path166"
     fill="#ffffff"
     transform="translate(0.14,0.14)"
     d="m 391.9,588.28 a 3.43,3.43 0 0 0 0.56,0 2.44,2.44 0 0 0 0.5,-0.16 1.32,1.32 0 0 0 0.37,-0.29 0.92,0.92 0 0 0 0.21,-0.43 h 0.74 v 5.6 h -1 v -4 h -1.38 z" />
  <path
     id="path168"
     fill="#ffffff"
     transform="translate(0.14,0.14)"
     d="m 400.11,591.62 h -0.72 V 593 h -0.87 v -1.33 h -2.4 v -0.9 l 2.4,-3.37 h 0.87 v 3.55 h 0.72 z m -3.28,-0.72 h 1.69 v -2.46 0 z" />
  <path
     id="path170"
     fill="#ffffff"
     transform="translate(0.14,0.14)"
     d="m 420.38,588.28 a 3.33,3.33 0 0 0 0.56,0 2.26,2.26 0 0 0 0.5,-0.16 1.32,1.32 0 0 0 0.37,-0.29 0.83,0.83 0 0 0 0.21,-0.43 h 0.74 v 5.6 h -1 v -4 h -1.38 z" />
  <path
     id="path172"
     fill="#ffffff"
     transform="translate(0.14,0.14)"
     d="m 425.4,587.35 h 2.9 v 0.81 h -2.22 l -0.29,1.43 v 0 a 1.19,1.19 0 0 1 0.47,-0.32 1.65,1.65 0 0 1 0.57,-0.11 1.91,1.91 0 0 1 0.74,0.14 1.38,1.38 0 0 1 0.55,0.39 1.79,1.79 0 0 1 0.35,0.6 2.55,2.55 0 0 1 0.11,0.74 2.17,2.17 0 0 1 -0.11,0.7 1.93,1.93 0 0 1 -0.34,0.65 2,2 0 0 1 -0.61,0.48 1.94,1.94 0 0 1 -0.88,0.18 2.57,2.57 0 0 1 -0.75,-0.1 1.84,1.84 0 0 1 -0.62,-0.33 1.7,1.7 0 0 1 -0.42,-0.53 1.87,1.87 0 0 1 -0.17,-0.74 h 0.91 a 1,1 0 0 0 1,0.94 1.22,1.22 0 0 0 0.49,-0.09 0.84,0.84 0 0 0 0.32,-0.27 1.17,1.17 0 0 0 0.18,-0.39 2.44,2.44 0 0 0 0.05,-0.48 1.31,1.31 0 0 0 -0.07,-0.44 1,1 0 0 0 -0.19,-0.38 0.85,0.85 0 0 0 -0.33,-0.25 1,1 0 0 0 -0.48,-0.1 1.41,1.41 0 0 0 -0.54,0.11 0.65,0.65 0 0 0 -0.36,0.4 h -0.91 z" />
  <path
     id="path174"
     fill="#ffffff"
     transform="translate(0.14,0.14)"
     d="m 448.73,588.28 a 3.43,3.43 0 0 0 0.56,0 2.17,2.17 0 0 0 0.49,-0.16 1.24,1.24 0 0 0 0.38,-0.29 0.9,0.9 0 0 0 0.2,-0.43 h 0.75 v 5.6 h -1 v -4 h -1.38 z" />
  <path
     id="path176"
     fill="#ffffff"
     transform="translate(0.14,0.14)"
     d="m 455.92,588.76 a 0.85,0.85 0 0 0 -0.24,-0.55 0.8,0.8 0 0 0 -0.58,-0.22 1,1 0 0 0 -0.73,0.34 1.33,1.33 0 0 0 -0.2,0.35 2.77,2.77 0 0 0 -0.12,0.41 3.49,3.49 0 0 0 -0.07,0.43 c 0,0.14 0,0.27 0,0.4 v 0 a 1.17,1.17 0 0 1 0.51,-0.5 1.5,1.5 0 0 1 0.7,-0.16 1.91,1.91 0 0 1 0.74,0.14 1.63,1.63 0 0 1 0.56,0.4 1.79,1.79 0 0 1 0.35,0.6 2.21,2.21 0 0 1 0.12,0.74 2.38,2.38 0 0 1 -0.13,0.76 2,2 0 0 1 -0.38,0.61 1.91,1.91 0 0 1 -0.6,0.4 1.87,1.87 0 0 1 -0.76,0.14 2,2 0 0 1 -1,-0.22 1.81,1.81 0 0 1 -0.63,-0.63 2.75,2.75 0 0 1 -0.31,-0.93 6.88,6.88 0 0 1 -0.09,-1.15 5,5 0 0 1 0.11,-1 3,3 0 0 1 0.36,-0.94 1.93,1.93 0 0 1 0.65,-0.68 1.74,1.74 0 0 1 1,-0.27 1.79,1.79 0 0 1 1.16,0.43 1.47,1.47 0 0 1 0.37,0.48 1.42,1.42 0 0 1 0.16,0.62 z M 455,592.3 a 0.83,0.83 0 0 0 0.43,-0.1 0.79,0.79 0 0 0 0.31,-0.26 1.29,1.29 0 0 0 0.19,-0.37 1.61,1.61 0 0 0 0.06,-0.44 1.54,1.54 0 0 0 -0.06,-0.43 1.23,1.23 0 0 0 -0.19,-0.36 0.76,0.76 0 0 0 -0.31,-0.25 0.83,0.83 0 0 0 -0.43,-0.1 1,1 0 0 0 -0.44,0.09 1,1 0 0 0 -0.5,0.61 1.31,1.31 0 0 0 -0.07,0.44 1.23,1.23 0 0 0 0.07,0.44 1,1 0 0 0 0.19,0.38 1,1 0 0 0 0.31,0.26 1,1 0 0 0 0.44,0.09 z" />
  <path
     id="path178"
     fill="#ffffff"
     transform="translate(0.14,0.14)"
     d="m 477.08,588.28 a 3.43,3.43 0 0 0 0.56,0 2.35,2.35 0 0 0 0.49,-0.16 1.37,1.37 0 0 0 0.38,-0.29 0.9,0.9 0 0 0 0.2,-0.43 h 0.75 v 5.6 h -1 v -4 h -1.37 z" />
  <path
     id="path180"
     fill="#ffffff"
     transform="translate(0.14,0.14)"
     d="m 481.38,587.35 h 3.84 v 0.76 a 9.8,9.8 0 0 0 -0.8,1 7.28,7.28 0 0 0 -0.63,1.13 7.78,7.78 0 0 0 -0.44,1.26 8.62,8.62 0 0 0 -0.22,1.42 h -1 a 6.54,6.54 0 0 1 0.23,-1.31 8.27,8.27 0 0 1 0.46,-1.26 9.7,9.7 0 0 1 0.66,-1.17 10.46,10.46 0 0 1 0.81,-1.05 h -2.91 z" />
  <path
     id="path182"
     fill="#ffffff"
     transform="translate(0.14,0.14)"
     d="m 505.42,588.28 a 3.33,3.33 0 0 0 0.56,0 2.26,2.26 0 0 0 0.5,-0.16 1.32,1.32 0 0 0 0.37,-0.29 0.92,0.92 0 0 0 0.21,-0.43 h 0.74 v 5.6 h -1 v -4 h -1.38 z" />
  <path
     id="path184"
     fill="#ffffff"
     transform="translate(0.14,0.14)"
     d="m 511.68,593.06 a 2.47,2.47 0 0 1 -0.79,-0.12 1.91,1.91 0 0 1 -0.63,-0.34 1.62,1.62 0 0 1 -0.41,-0.56 1.78,1.78 0 0 1 -0.15,-0.74 1.39,1.39 0 0 1 0.28,-0.89 1.3,1.3 0 0 1 0.74,-0.48 v 0 a 1.2,1.2 0 0 1 -0.58,-0.45 1.19,1.19 0 0 1 -0.21,-0.71 1.43,1.43 0 0 1 0.45,-1.12 1.91,1.91 0 0 1 1.3,-0.41 1.87,1.87 0 0 1 1.29,0.41 1.43,1.43 0 0 1 0.45,1.12 1.26,1.26 0 0 1 -0.2,0.71 1.23,1.23 0 0 1 -0.59,0.45 v 0 a 1.36,1.36 0 0 1 0.75,0.48 1.45,1.45 0 0 1 0.28,0.89 1.78,1.78 0 0 1 -0.15,0.74 1.65,1.65 0 0 1 -0.42,0.56 1.77,1.77 0 0 1 -0.62,0.34 2.56,2.56 0 0 1 -0.79,0.12 z m 0,-0.72 a 1.12,1.12 0 0 0 0.76,-0.27 1,1 0 0 0 0.3,-0.77 0.89,0.89 0 0 0 -0.3,-0.72 1.12,1.12 0 0 0 -0.76,-0.26 1.08,1.08 0 0 0 -0.76,0.26 0.87,0.87 0 0 0 -0.31,0.72 1,1 0 0 0 0.31,0.77 1.09,1.09 0 0 0 0.76,0.27 z m 0,-4.39 a 0.92,0.92 0 0 0 -0.63,0.23 0.91,0.91 0 0 0 0,1.24 1,1 0 0 0 1.27,0 0.88,0.88 0 0 0 0,-1.24 0.91,0.91 0 0 0 -0.64,-0.18 z" />
  <path
     id="path186"
     fill="#ffffff"
     transform="translate(0.14,0.14)"
     d="m 533.9,588.28 a 3.55,3.55 0 0 0 0.57,0 2.35,2.35 0 0 0 0.49,-0.16 1.32,1.32 0 0 0 0.37,-0.29 0.83,0.83 0 0 0 0.21,-0.43 h 0.74 v 5.6 h -1 v -4 h -1.38 z" />
  <path
     id="path188"
     fill="#ffffff"
     transform="translate(0.14,0.14)"
     d="m 539.22,591.53 a 0.83,0.83 0 0 0 0.25,0.56 0.77,0.77 0 0 0 0.57,0.21 0.87,0.87 0 0 0 0.59,-0.19 1.44,1.44 0 0 0 0.34,-0.49 2.53,2.53 0 0 0 0.16,-0.63 c 0,-0.22 0,-0.42 0.07,-0.61 v 0 a 1.33,1.33 0 0 1 -0.5,0.5 1.52,1.52 0 0 1 -0.71,0.17 1.89,1.89 0 0 1 -0.72,-0.14 1.68,1.68 0 0 1 -0.56,-0.38 1.83,1.83 0 0 1 -0.36,-0.59 2.37,2.37 0 0 1 -0.12,-0.78 2.33,2.33 0 0 1 0.12,-0.76 1.84,1.84 0 0 1 0.38,-0.61 1.62,1.62 0 0 1 0.61,-0.4 2.09,2.09 0 0 1 0.81,-0.15 1.89,1.89 0 0 1 1,0.23 1.61,1.61 0 0 1 0.61,0.63 2.75,2.75 0 0 1 0.3,0.93 7,7 0 0 1 0.09,1.15 4.4,4.4 0 0 1 -0.11,1 3.14,3.14 0 0 1 -0.35,0.93 2.15,2.15 0 0 1 -0.65,0.69 1.77,1.77 0 0 1 -1,0.26 1.61,1.61 0 0 1 -0.63,-0.11 1.65,1.65 0 0 1 -0.53,-0.31 1.62,1.62 0 0 1 -0.37,-0.48 1.47,1.47 0 0 1 -0.16,-0.63 z m 0.87,-3.54 a 1,1 0 0 0 -0.43,0.1 0.81,0.81 0 0 0 -0.3,0.25 1.16,1.16 0 0 0 -0.18,0.37 1.54,1.54 0 0 0 -0.06,0.43 1.56,1.56 0 0 0 0.06,0.44 1.11,1.11 0 0 0 0.18,0.38 1.08,1.08 0 0 0 0.3,0.26 1,1 0 0 0 0.43,0.1 0.88,0.88 0 0 0 0.45,-0.1 0.82,0.82 0 0 0 0.32,-0.26 1.13,1.13 0 0 0 0.19,-0.38 1.56,1.56 0 0 0 0.06,-0.44 1.54,1.54 0 0 0 -0.06,-0.43 1.18,1.18 0 0 0 -0.19,-0.37 0.89,0.89 0 0 0 -0.32,-0.25 1,1 0 0 0 -0.45,-0.09 z" />
  <path
     id="path190"
     fill="#ffffff"
     transform="translate(0.14,0.14)"
     d="m 566.24,593 h -3.83 a 2.26,2.26 0 0 1 0.34,-1.22 3,3 0 0 1 0.89,-0.9 l 0.57,-0.39 a 4.56,4.56 0 0 0 0.55,-0.4 2.17,2.17 0 0 0 0.4,-0.47 1,1 0 0 0 0.17,-0.58 2,2 0 0 0 0,-0.33 1.3,1.3 0 0 0 -0.14,-0.32 0.76,0.76 0 0 0 -0.29,-0.24 1,1 0 0 0 -0.48,-0.11 0.92,0.92 0 0 0 -0.46,0.11 0.81,0.81 0 0 0 -0.28,0.3 1.21,1.21 0 0 0 -0.16,0.44 2.53,2.53 0 0 0 -0.06,0.56 h -0.92 a 2.63,2.63 0 0 1 0.13,-0.86 1.77,1.77 0 0 1 0.37,-0.69 1.79,1.79 0 0 1 0.6,-0.45 2.18,2.18 0 0 1 1.69,0 1.64,1.64 0 0 1 0.56,0.43 1.56,1.56 0 0 1 0.3,0.55 2,2 0 0 1 0.08,0.58 1.74,1.74 0 0 1 -0.1,0.61 2.06,2.06 0 0 1 -0.28,0.5 3.16,3.16 0 0 1 -0.4,0.42 l -0.46,0.36 -0.49,0.32 -0.44,0.3 a 2.83,2.83 0 0 0 -0.36,0.32 0.78,0.78 0 0 0 -0.2,0.35 h 2.73 z" />
  <path
     id="path192"
     fill="#ffffff"
     transform="translate(0.14,0.14)"
     d="m 568.77,587.23 a 1.7,1.7 0 0 1 1,0.28 1.86,1.86 0 0 1 0.59,0.71 3.13,3.13 0 0 1 0.29,0.94 7,7 0 0 1 0,2 3.13,3.13 0 0 1 -0.29,0.94 1.94,1.94 0 0 1 -0.59,0.71 1.7,1.7 0 0 1 -1,0.27 1.67,1.67 0 0 1 -1,-0.27 1.94,1.94 0 0 1 -0.59,-0.71 3.13,3.13 0 0 1 -0.29,-0.94 7,7 0 0 1 0,-2 3.13,3.13 0 0 1 0.29,-0.94 1.86,1.86 0 0 1 0.59,-0.71 1.67,1.67 0 0 1 1,-0.28 z m 0,5.07 a 0.71,0.71 0 0 0 0.5,-0.17 1.22,1.22 0 0 0 0.32,-0.46 2.69,2.69 0 0 0 0.16,-0.69 6.91,6.91 0 0 0 0,-1.66 2.52,2.52 0 0 0 -0.16,-0.68 1.18,1.18 0 0 0 -0.32,-0.47 0.71,0.71 0 0 0 -0.5,-0.18 0.73,0.73 0 0 0 -0.5,0.18 1.17,1.17 0 0 0 -0.31,0.47 2.52,2.52 0 0 0 -0.16,0.68 6.91,6.91 0 0 0 0,1.66 2.69,2.69 0 0 0 0.16,0.69 1.2,1.2 0 0 0 0.31,0.46 0.72,0.72 0 0 0 0.5,0.17 z" />
  <path
     id="path210"
     fill="#ffffff"
     transform="translate(0.14,0.14)"
     d="m 2.26,551.39 a 3.43,3.43 0 0 0 0.56,0 1.76,1.76 0 0 0 0.49,-0.16 1.37,1.37 0 0 0 0.38,-0.29 0.9,0.9 0 0 0 0.2,-0.43 h 0.75 v 5.6 h -1 v -3.95 H 2.26 Z" />
  <path
     id="path212"
     fill="#ffffff"
     transform="translate(0.14,0.14)"
     d="M 6.78,527.72 H 3 a 2.23,2.23 0 0 1 0.33,-1.22 3.11,3.11 0 0 1 0.9,-0.91 c 0.18,-0.13 0.37,-0.26 0.57,-0.38 a 3.83,3.83 0 0 0 0.54,-0.41 2,2 0 0 0 0.41,-0.47 1.13,1.13 0 0 0 0.17,-0.58 1.22,1.22 0 0 0 0,-0.32 0.77,0.77 0 0 0 -0.14,-0.32 0.85,0.85 0 0 0 -0.28,-0.25 1,1 0 0 0 -0.49,-0.1 0.88,0.88 0 0 0 -0.45,0.11 0.89,0.89 0 0 0 -0.29,0.29 1.83,1.83 0 0 0 -0.16,0.45 4.41,4.41 0 0 0 -0.06,0.55 H 3.06 a 2.63,2.63 0 0 1 0.13,-0.86 1.8,1.8 0 0 1 0.37,-0.68 1.61,1.61 0 0 1 0.6,-0.46 A 2,2 0 0 1 5,522 a 2,2 0 0 1 0.86,0.17 1.58,1.58 0 0 1 0.55,0.42 1.33,1.33 0 0 1 0.3,0.56 2,2 0 0 1 0.09,0.57 1.7,1.7 0 0 1 -0.1,0.61 1.89,1.89 0 0 1 -0.28,0.5 3.16,3.16 0 0 1 -0.4,0.42 5.32,5.32 0 0 1 -0.47,0.36 l -0.48,0.32 c -0.16,0.1 -0.31,0.2 -0.44,0.3 a 2.91,2.91 0 0 0 -0.36,0.32 1,1 0 0 0 -0.21,0.35 h 2.72 z" />
  <path
     id="path214"
     fill="#ffffff"
     transform="translate(0.14,0.14)"
     d="m 4.47,496.09 a 2.28,2.28 0 0 0 0.45,0 1.06,1.06 0 0 0 0.4,-0.14 0.66,0.66 0 0 0 0.28,-0.27 0.85,0.85 0 0 0 -0.13,-1 0.91,0.91 0 0 0 -0.63,-0.22 0.82,0.82 0 0 0 -0.42,0.1 0.8,0.8 0 0 0 -0.29,0.26 1.14,1.14 0 0 0 -0.17,0.37 1.16,1.16 0 0 0 0,0.42 H 3 a 2.33,2.33 0 0 1 0.15,-0.76 1.84,1.84 0 0 1 0.37,-0.6 1.64,1.64 0 0 1 0.57,-0.4 1.87,1.87 0 0 1 0.76,-0.15 2.05,2.05 0 0 1 0.65,0.1 1.89,1.89 0 0 1 0.57,0.28 1.31,1.31 0 0 1 0.4,0.47 1.36,1.36 0 0 1 0.15,0.65 1.38,1.38 0 0 1 -0.19,0.74 1.14,1.14 0 0 1 -0.6,0.46 v 0 a 1.15,1.15 0 0 1 0.75,0.47 1.57,1.57 0 0 1 0.27,0.93 1.51,1.51 0 0 1 -0.16,0.71 1.63,1.63 0 0 1 -0.43,0.54 2.07,2.07 0 0 1 -0.64,0.34 2.37,2.37 0 0 1 -0.76,0.12 2.23,2.23 0 0 1 -0.85,-0.14 1.51,1.51 0 0 1 -0.61,-0.4 1.56,1.56 0 0 1 -0.37,-0.61 2.53,2.53 0 0 1 -0.14,-0.8 h 0.92 a 1.26,1.26 0 0 0 0.25,0.85 1,1 0 0 0 0.8,0.34 1.18,1.18 0 0 0 0.77,-0.26 0.93,0.93 0 0 0 0.31,-0.74 1,1 0 0 0 -0.13,-0.52 0.79,0.79 0 0 0 -0.34,-0.29 1.36,1.36 0 0 0 -0.47,-0.13 4.64,4.64 0 0 0 -0.53,0 z" />
  <path
     id="path216"
     fill="#ffffff"
     transform="translate(0.14,0.14)"
     d="M 6.82,469.69 H 6.1 V 471 H 5.24 v -1.33 h -2.4 v -0.9 l 2.4,-3.37 H 6.1 V 469 H 6.82 Z M 3.54,469 h 1.7 v -2.46 0 z" />
  <path
     id="path218"
     fill="#ffffff"
     transform="translate(0.14,0.14)"
     d="m 3.63,437.07 h 2.9 v 0.82 H 4.31 L 4,439.31 v 0 a 1.23,1.23 0 0 1 0.47,-0.32 1.58,1.58 0 0 1 0.56,-0.1 1.79,1.79 0 0 1 0.75,0.14 1.53,1.53 0 0 1 0.55,0.39 1.82,1.82 0 0 1 0.34,0.59 2.27,2.27 0 0 1 0.11,0.75 2.45,2.45 0 0 1 -0.1,0.69 2,2 0 0 1 -0.35,0.65 1.77,1.77 0 0 1 -0.6,0.48 1.87,1.87 0 0 1 -0.88,0.19 2.58,2.58 0 0 1 -0.76,-0.11 1.78,1.78 0 0 1 -0.61,-0.32 1.49,1.49 0 0 1 -0.42,-0.54 1.83,1.83 0 0 1 -0.18,-0.74 H 3.8 a 1,1 0 0 0 0.31,0.7 1,1 0 0 0 0.72,0.25 1,1 0 0 0 0.49,-0.1 0.82,0.82 0 0 0 0.32,-0.26 1,1 0 0 0 0.18,-0.39 2.44,2.44 0 0 0 0,-0.48 1.63,1.63 0 0 0 -0.06,-0.45 1.43,1.43 0 0 0 -0.19,-0.37 1,1 0 0 0 -0.34,-0.26 1.13,1.13 0 0 0 -0.47,-0.09 1.33,1.33 0 0 0 -0.54,0.1 0.72,0.72 0 0 0 -0.37,0.41 H 3 Z" />
  <path
     id="path220"
     fill="#ffffff"
     transform="translate(0.14,0.14)"
     d="m 5.54,410.14 a 0.81,0.81 0 0 0 -0.25,-0.55 0.74,0.74 0 0 0 -0.57,-0.22 0.85,0.85 0 0 0 -0.43,0.1 0.89,0.89 0 0 0 -0.3,0.24 1.33,1.33 0 0 0 -0.2,0.35 c 0,0.13 -0.09,0.27 -0.13,0.41 A 3.18,3.18 0 0 0 3.6,410.9 c 0,0.14 0,0.27 0,0.4 v 0 a 1.2,1.2 0 0 1 0.5,-0.5 1.54,1.54 0 0 1 0.71,-0.16 1.78,1.78 0 0 1 0.74,0.14 1.74,1.74 0 0 1 0.56,0.4 1.82,1.82 0 0 1 0.34,0.59 2.27,2.27 0 0 1 0.12,0.75 2.13,2.13 0 0 1 -0.13,0.76 1.71,1.71 0 0 1 -0.38,0.6 1.65,1.65 0 0 1 -0.59,0.41 1.87,1.87 0 0 1 -0.76,0.14 1.91,1.91 0 0 1 -1,-0.23 1.63,1.63 0 0 1 -0.63,-0.62 2.55,2.55 0 0 1 -0.31,-0.93 6.88,6.88 0 0 1 -0.09,-1.15 4.55,4.55 0 0 1 0.11,-1 3.14,3.14 0 0 1 0.35,-0.93 2,2 0 0 1 0.65,-0.68 1.78,1.78 0 0 1 1,-0.27 1.61,1.61 0 0 1 0.63,0.12 1.48,1.48 0 0 1 0.53,0.31 1.62,1.62 0 0 1 0.37,0.48 1.39,1.39 0 0 1 0.16,0.62 z m -0.88,3.54 a 0.85,0.85 0 0 0 0.43,-0.1 0.86,0.86 0 0 0 0.31,-0.26 1.06,1.06 0 0 0 0.18,-0.37 1.61,1.61 0 0 0 0.06,-0.44 1.54,1.54 0 0 0 -0.06,-0.43 1,1 0 0 0 -0.18,-0.36 1,1 0 0 0 -0.31,-0.26 1,1 0 0 0 -0.43,-0.09 1,1 0 0 0 -0.44,0.09 1,1 0 0 0 -0.32,0.25 1.23,1.23 0 0 0 -0.19,0.36 1.61,1.61 0 0 0 -0.06,0.44 1.33,1.33 0 0 0 0.25,0.82 1.14,1.14 0 0 0 0.32,0.26 1,1 0 0 0 0.44,0.09 z" />
  <path
     id="path222"
     fill="#ffffff"
     transform="translate(0.14,0.14)"
     d="m 2.92,380.38 h 3.84 v 0.76 a 9.8,9.8 0 0 0 -0.8,1 7.28,7.28 0 0 0 -0.63,1.13 8.13,8.13 0 0 0 -0.44,1.26 8.79,8.79 0 0 0 -0.22,1.47 h -1 a 6.54,6.54 0 0 1 0.23,-1.31 8.27,8.27 0 0 1 0.46,-1.26 9.7,9.7 0 0 1 0.64,-1.19 9.31,9.31 0 0 1 0.81,-1 H 2.92 Z" />
  <path
     id="path224"
     fill="#ffffff"
     transform="translate(0.14,0.14)"
     d="m 4.87,357.75 a 2.52,2.52 0 0 1 -0.79,-0.12 1.93,1.93 0 0 1 -0.63,-0.35 1.66,1.66 0 0 1 -0.41,-0.56 1.7,1.7 0 0 1 -0.15,-0.73 1.45,1.45 0 0 1 0.28,-0.89 1.3,1.3 0 0 1 0.75,-0.48 v 0 a 1.16,1.16 0 0 1 -0.59,-0.44 1.21,1.21 0 0 1 -0.2,-0.71 1.45,1.45 0 0 1 0.45,-1.13 1.91,1.91 0 0 1 1.29,-0.4 1.91,1.91 0 0 1 1.29,0.4 1.42,1.42 0 0 1 0.46,1.13 1.21,1.21 0 0 1 -0.21,0.71 1.12,1.12 0 0 1 -0.59,0.44 v 0 a 1.3,1.3 0 0 1 0.75,0.48 1.39,1.39 0 0 1 0.28,0.89 1.7,1.7 0 0 1 -0.15,0.73 1.66,1.66 0 0 1 -0.41,0.56 1.93,1.93 0 0 1 -0.63,0.35 2.52,2.52 0 0 1 -0.79,0.12 z m 0,-0.72 a 1.1,1.1 0 0 0 0.76,-0.27 1,1 0 0 0 0.31,-0.77 0.94,0.94 0 0 0 -0.31,-0.73 1.15,1.15 0 0 0 -0.76,-0.26 1.15,1.15 0 0 0 -0.76,0.26 0.93,0.93 0 0 0 -0.3,0.73 1,1 0 0 0 0.3,0.77 1.1,1.1 0 0 0 0.76,0.24 z m 0,-4.39 a 0.91,0.91 0 0 0 -0.62,0.22 0.81,0.81 0 0 0 -0.26,0.64 0.75,0.75 0 0 0 0.25,0.61 0.92,0.92 0 0 0 0.63,0.21 0.92,0.92 0 0 0 0.63,-0.21 0.75,0.75 0 0 0 0.25,-0.61 0.8,0.8 0 0 0 -0.25,-0.64 0.93,0.93 0 0 0 -0.63,-0.22 z" />
  <path
     id="path226"
     fill="#ffffff"
     transform="translate(0.14,0.14)"
     d="m 3.93,327.87 a 0.94,0.94 0 0 0 0.25,0.56 0.77,0.77 0 0 0 0.57,0.21 0.85,0.85 0 0 0 0.59,-0.19 1.31,1.31 0 0 0 0.34,-0.49 2.53,2.53 0 0 0 0.16,-0.63 c 0,-0.22 0.06,-0.42 0.07,-0.61 v 0 a 1.44,1.44 0 0 1 -0.51,0.5 1.51,1.51 0 0 1 -0.7,0.17 1.9,1.9 0 0 1 -0.73,-0.14 1.64,1.64 0 0 1 -0.55,-0.38 1.54,1.54 0 0 1 -0.36,-0.59 2.13,2.13 0 0 1 -0.13,-0.78 2.09,2.09 0 0 1 0.13,-0.76 1.82,1.82 0 0 1 0.37,-0.61 1.7,1.7 0 0 1 0.61,-0.4 2.1,2.1 0 0 1 0.82,-0.15 1.88,1.88 0 0 1 1,0.23 1.61,1.61 0 0 1 0.61,0.63 3,3 0 0 1 0.31,0.93 7,7 0 0 1 0.08,1.15 5,5 0 0 1 -0.1,1 3.16,3.16 0 0 1 -0.36,0.93 2.15,2.15 0 0 1 -0.65,0.69 1.75,1.75 0 0 1 -1,0.26 A 1.67,1.67 0 0 1 4.12,329.29 1.76,1.76 0 0 1 3.59,328.98 1.55,1.55 0 0 1 3,327.87 Z m 0.88,-3.54 a 1,1 0 0 0 -0.44,0.1 0.81,0.81 0 0 0 -0.3,0.25 1.16,1.16 0 0 0 -0.18,0.37 1.54,1.54 0 0 0 -0.06,0.43 1.56,1.56 0 0 0 0.06,0.44 1.11,1.11 0 0 0 0.18,0.38 1.08,1.08 0 0 0 0.3,0.26 1,1 0 0 0 0.44,0.1 0.93,0.93 0 0 0 0.45,-0.1 0.86,0.86 0 0 0 0.31,-0.26 1.13,1.13 0 0 0 0.19,-0.38 1.56,1.56 0 0 0 0.06,-0.44 1.54,1.54 0 0 0 -0.06,-0.43 1.18,1.18 0 0 0 -0.19,-0.37 1,1 0 0 0 -0.31,-0.25 1.06,1.06 0 0 0 -0.45,-0.1 z" />
  <path
     id="path228"
     fill="#ffffff"
     transform="translate(0.14,0.14)"
     d="m 2.26,296.27 a 3.43,3.43 0 0 0 0.56,0 1.49,1.49 0 0 0 0.49,-0.16 1.2,1.2 0 0 0 0.38,-0.29 0.9,0.9 0 0 0 0.2,-0.43 h 0.75 v 5.6 h -1 V 297 H 2.26 Z" />
  <path
     id="path230"
     fill="#ffffff"
     transform="translate(0.14,0.14)"
     d="m 8.51,295.23 a 1.65,1.65 0 0 1 1,0.27 1.87,1.87 0 0 1 0.6,0.71 3.44,3.44 0 0 1 0.29,0.94 6.78,6.78 0 0 1 0.07,1 7,7 0 0 1 -0.07,1 3.55,3.55 0 0 1 -0.29,0.94 1.84,1.84 0 0 1 -0.6,0.7 1.65,1.65 0 0 1 -1,0.28 1.67,1.67 0 0 1 -1,-0.28 1.91,1.91 0 0 1 -0.59,-0.7 3.22,3.22 0 0 1 -0.29,-0.94 7,7 0 0 1 -0.07,-1 6.78,6.78 0 0 1 0.07,-1 3.13,3.13 0 0 1 0.29,-0.94 1.94,1.94 0 0 1 0.59,-0.71 1.67,1.67 0 0 1 1,-0.27 z m 0,5.07 a 0.71,0.71 0 0 0 0.5,-0.18 1.15,1.15 0 0 0 0.32,-0.46 3.09,3.09 0 0 0 0.16,-0.68 7.44,7.44 0 0 0 0,-0.84 7.26,7.26 0 0 0 0,-0.83 3.09,3.09 0 0 0 -0.16,-0.68 1.26,1.26 0 0 0 -0.32,-0.47 0.82,0.82 0 0 0 -1,0 1.24,1.24 0 0 0 -0.31,0.47 2.61,2.61 0 0 0 -0.16,0.68 5.53,5.53 0 0 0 0,0.83 5.66,5.66 0 0 0 0,0.84 2.61,2.61 0 0 0 0.16,0.68 1.13,1.13 0 0 0 0.31,0.46 0.71,0.71 0 0 0 0.5,0.18 z" />
  <path
     id="path232"
     fill="#ffffff"
     transform="translate(0.14,0.14)"
     d="m 2.26,267.92 a 2.59,2.59 0 0 0 0.56,-0.05 1.49,1.49 0 0 0 0.49,-0.16 1.34,1.34 0 0 0 0.38,-0.28 0.94,0.94 0 0 0 0.2,-0.44 h 0.75 v 5.61 h -1 v -4 H 2.26 Z" />
  <path
     id="path234"
     fill="#ffffff"
     transform="translate(0.14,0.14)"
     d="m 6.71,267.92 a 2.59,2.59 0 0 0 0.56,-0.05 1.49,1.49 0 0 0 0.49,-0.16 1.21,1.21 0 0 0 0.38,-0.28 1,1 0 0 0 0.21,-0.44 h 0.74 v 5.61 h -1 v -4 H 6.71 Z" />
  <path
     id="path236"
     fill="#ffffff"
     transform="translate(0.14,0.14)"
     d="m 2.26,239.58 a 3.43,3.43 0 0 0 0.56,-0.05 1.76,1.76 0 0 0 0.49,-0.16 1.37,1.37 0 0 0 0.38,-0.29 0.9,0.9 0 0 0 0.2,-0.43 h 0.75 v 5.6 h -1 V 240.3 H 2.26 Z" />
  <path
     id="path238"
     fill="#ffffff"
     transform="translate(0.14,0.14)"
     d="M 10.43,244.25 H 6.6 A 2.2,2.2 0 0 1 6.94,243 3,3 0 0 1 7.83,242.09 L 8.4,241.7 a 4.56,4.56 0 0 0 0.55,-0.4 2.17,2.17 0 0 0 0.4,-0.47 1,1 0 0 0 0.17,-0.58 2,2 0 0 0 0,-0.33 1,1 0 0 0 -0.14,-0.32 0.87,0.87 0 0 0 -0.29,-0.24 1,1 0 0 0 -0.48,-0.1 0.88,0.88 0 0 0 -0.45,0.1 0.83,0.83 0 0 0 -0.29,0.3 1.21,1.21 0 0 0 -0.16,0.44 2.53,2.53 0 0 0 -0.06,0.56 H 6.7 a 2.63,2.63 0 0 1 0.13,-0.86 1.77,1.77 0 0 1 0.37,-0.69 1.89,1.89 0 0 1 0.6,-0.45 2.18,2.18 0 0 1 1.69,0 1.64,1.64 0 0 1 0.56,0.43 1.56,1.56 0 0 1 0.3,0.55 2.05,2.05 0 0 1 0.09,0.58 1.74,1.74 0 0 1 -0.11,0.61 2.06,2.06 0 0 1 -0.28,0.5 3.16,3.16 0 0 1 -0.4,0.42 l -0.46,0.36 -0.48,0.32 -0.45,0.3 a 3.73,3.73 0 0 0 -0.36,0.32 0.78,0.78 0 0 0 -0.2,0.35 h 2.73 z" />
  <path
     id="path240"
     fill="#ffffff"
     transform="translate(0.14,0.14)"
     d="m 2.26,211.23 a 3.43,3.43 0 0 0 0.56,0 1.49,1.49 0 0 0 0.49,-0.16 1.2,1.2 0 0 0 0.38,-0.29 0.86,0.86 0 0 0 0.2,-0.43 h 0.75 v 5.61 h -1 v -4 H 2.26 Z" />
  <path
     id="path242"
     fill="#ffffff"
     transform="translate(0.14,0.14)"
     d="m 8.11,212.62 a 1.71,1.71 0 0 0 0.45,0 1.26,1.26 0 0 0 0.4,-0.14 0.86,0.86 0 0 0 0.29,-0.28 0.81,0.81 0 0 0 0.1,-0.43 0.72,0.72 0 0 0 -0.24,-0.57 0.88,0.88 0 0 0 -0.63,-0.22 0.76,0.76 0 0 0 -0.41,0.1 0.91,0.91 0 0 0 -0.3,0.25 1.56,1.56 0 0 0 -0.17,0.37 1.51,1.51 0 0 0 0,0.42 H 6.64 a 2.27,2.27 0 0 1 0.15,-0.75 2,2 0 0 1 0.37,-0.61 1.72,1.72 0 0 1 0.58,-0.4 2,2 0 0 1 0.76,-0.14 2.3,2.3 0 0 1 0.64,0.09 2.16,2.16 0 0 1 0.57,0.28 1.39,1.39 0 0 1 0.4,0.47 1.29,1.29 0 0 1 0.16,0.66 1.41,1.41 0 0 1 -0.2,0.74 1.06,1.06 0 0 1 -0.6,0.46 v 0 a 1.21,1.21 0 0 1 0.75,0.48 1.7,1.7 0 0 1 0.11,1.64 1.74,1.74 0 0 1 -0.43,0.54 2.12,2.12 0 0 1 -0.63,0.34 2.42,2.42 0 0 1 -0.76,0.12 2.5,2.5 0 0 1 -0.86,-0.14 1.85,1.85 0 0 1 -0.61,-0.4 1.83,1.83 0 0 1 -0.37,-0.62 2.48,2.48 0 0 1 -0.13,-0.8 h 0.91 a 1.28,1.28 0 0 0 0.25,0.86 1,1 0 0 0 0.81,0.34 1.17,1.17 0 0 0 0.76,-0.26 0.91,0.91 0 0 0 0.31,-0.74 0.87,0.87 0 0 0 -0.13,-0.52 0.89,0.89 0 0 0 -0.34,-0.3 1.55,1.55 0 0 0 -0.46,-0.12 4.87,4.87 0 0 0 -0.54,0 z" />
  <path
     id="path244"
     fill="#ffffff"
     transform="translate(0.14,0.14)"
     d="m 2.26,182.88 a 2.59,2.59 0 0 0 0.56,0 1.49,1.49 0 0 0 0.49,-0.16 1.34,1.34 0 0 0 0.38,-0.28 0.94,0.94 0 0 0 0.2,-0.44 h 0.75 v 5.61 h -1 v -4 H 2.26 Z" />
  <path
     id="path246"
     fill="#ffffff"
     transform="translate(0.14,0.14)"
     d="M 10.47,186.23 H 9.75 v 1.33 H 8.88 v -1.33 h -2.4 v -0.91 L 8.88,182 h 0.87 v 3.56 h 0.72 z m -3.29,-0.72 h 1.7 v -2.51 0 z" />
  <path
     id="path248"
     fill="#ffffff"
     transform="translate(0.14,0.14)"
     d="m 2.26,154.54 a 3.43,3.43 0 0 0 0.56,0 1.76,1.76 0 0 0 0.49,-0.16 1.37,1.37 0 0 0 0.38,-0.29 0.9,0.9 0 0 0 0.2,-0.43 h 0.75 v 5.6 h -1 v -4 H 2.26 Z" />
  <path
     id="path250"
     fill="#ffffff"
     transform="translate(0.14,0.14)"
     d="m 7.27,153.61 h 2.9 v 0.81 H 8 l -0.29,1.43 v 0 a 1.13,1.13 0 0 1 0.47,-0.32 1.64,1.64 0 0 1 0.56,-0.11 2,2 0 0 1 0.75,0.14 1.57,1.57 0 0 1 0.51,0.44 1.77,1.77 0 0 1 0.34,0.6 2.27,2.27 0 0 1 0.12,0.75 2.48,2.48 0 0 1 -0.11,0.69 2,2 0 0 1 -0.35,0.65 1.82,1.82 0 0 1 -0.6,0.48 2,2 0 0 1 -0.88,0.18 2.68,2.68 0 0 1 -0.76,-0.1 1.89,1.89 0 0 1 -0.61,-0.33 1.46,1.46 0 0 1 -0.42,-0.53 1.87,1.87 0 0 1 -0.17,-0.74 h 0.91 a 0.94,0.94 0 0 0 1,0.94 1.16,1.16 0 0 0 0.49,-0.09 0.87,0.87 0 0 0 0.33,-0.27 1,1 0 0 0 0.17,-0.39 1.86,1.86 0 0 0 0.05,-0.48 1.61,1.61 0 0 0 -0.06,-0.44 1.13,1.13 0 0 0 -0.19,-0.38 1,1 0 0 0 -0.33,-0.25 1.06,1.06 0 0 0 -0.48,-0.1 1.41,1.41 0 0 0 -0.54,0.11 0.7,0.7 0 0 0 -0.37,0.4 H 6.67 Z" />
  <path
     id="path252"
     fill="#ffffff"
     transform="translate(0.14,0.14)"
     d="m 2.26,126.19 a 3.43,3.43 0 0 0 0.56,0 1.49,1.49 0 0 0 0.49,-0.16 1.2,1.2 0 0 0 0.38,-0.29 0.86,0.86 0 0 0 0.2,-0.43 h 0.75 v 5.61 h -1 v -4 H 2.26 Z" />
  <path
     id="path254"
     fill="#ffffff"
     transform="translate(0.14,0.14)"
     d="m 9.45,126.68 a 0.87,0.87 0 0 0 -0.24,-0.56 0.81,0.81 0 0 0 -0.58,-0.21 0.93,0.93 0 0 0 -0.42,0.09 0.84,0.84 0 0 0 -0.31,0.25 1.27,1.27 0 0 0 -0.2,0.34 2.9,2.9 0 0 0 -0.12,0.42 2,2 0 0 0 -0.07,0.42 c 0,0.15 0,0.28 0,0.4 v 0 a 1.12,1.12 0 0 1 0.51,-0.5 1.51,1.51 0 0 1 0.7,-0.17 1.75,1.75 0 0 1 0.74,0.15 1.49,1.49 0 0 1 0.56,0.39 1.79,1.79 0 0 1 0.35,0.6 2.25,2.25 0 0 1 0.12,0.74 2.28,2.28 0 0 1 -0.13,0.76 1.77,1.77 0 0 1 -0.39,0.61 1.62,1.62 0 0 1 -0.59,0.4 1.87,1.87 0 0 1 -0.76,0.15 2,2 0 0 1 -1,-0.23 1.7,1.7 0 0 1 -0.63,-0.62 2.91,2.91 0 0 1 -0.31,-0.93 7,7 0 0 1 -0.09,-1.15 5.05,5.05 0 0 1 0.11,-1 3.14,3.14 0 0 1 0.3,-0.93 2.18,2.18 0 0 1 0.66,-0.69 1.82,1.82 0 0 1 1,-0.26 1.91,1.91 0 0 1 0.64,0.11 1.94,1.94 0 0 1 0.52,0.31 1.72,1.72 0 0 1 0.37,0.48 1.47,1.47 0 0 1 0.16,0.63 z m -0.88,3.54 a 0.94,0.94 0 0 0 0.43,-0.1 1.13,1.13 0 0 0 0.31,-0.26 1.16,1.16 0 0 0 0.18,-0.37 1.67,1.67 0 0 0 0.06,-0.44 1.54,1.54 0 0 0 -0.06,-0.43 1.16,1.16 0 0 0 -0.18,-0.37 0.94,0.94 0 0 0 -0.74,-0.35 0.89,0.89 0 0 0 -0.44,0.1 0.92,0.92 0 0 0 -0.31,0.24 1.2,1.2 0 0 0 -0.2,0.37 1.56,1.56 0 0 0 -0.06,0.44 1.61,1.61 0 0 0 0.06,0.44 1.2,1.2 0 0 0 0.2,0.37 0.86,0.86 0 0 0 0.31,0.26 0.89,0.89 0 0 0 0.44,0.1 z" />
  <path
     id="path256"
     fill="#ffffff"
     transform="translate(0.14,0.14)"
     d="m 2.26,97.84 a 3.43,3.43 0 0 0 0.56,0 1.77,1.77 0 0 0 0.49,-0.17 1.34,1.34 0 0 0 0.38,-0.28 0.89,0.89 0 0 0 0.2,-0.44 h 0.75 v 5.61 h -1 v -4 H 2.26 Z" />
  <path
     id="path258"
     fill="#ffffff"
     transform="translate(0.14,0.14)"
     d="m 6.57,96.91 h 3.83 v 0.76 a 12.43,12.43 0 0 0 -0.8,1 8.34,8.34 0 0 0 -0.6,1.16 8.49,8.49 0 0 0 -0.43,1.26 8.9,8.9 0 0 0 -0.23,1.43 h -1 A 6.54,6.54 0 0 1 7.57,101.21 7.59,7.59 0 0 1 8,100 a 6.75,6.75 0 0 1 0.66,-1.17 12.08,12.08 0 0 1 0.8,-1 H 6.57 Z" />
  <path
     id="path260"
     fill="#ffffff"
     transform="translate(0.14,0.14)"
     d="m 2.26,69.5 a 3.43,3.43 0 0 0 0.56,0 1.76,1.76 0 0 0 0.49,-0.16 1.37,1.37 0 0 0 0.38,-0.34 0.9,0.9 0 0 0 0.2,-0.43 h 0.75 v 5.6 h -1 v -4 H 2.26 Z" />
  <path
     id="path262"
     fill="#ffffff"
     transform="translate(0.14,0.14)"
     d="M 8.51,74.29 A 2.56,2.56 0 0 1 7.72,74.17 1.79,1.79 0 0 1 7.1,73.82 1.65,1.65 0 0 1 6.68,73.26 1.75,1.75 0 0 1 6.54,72.52 1.42,1.42 0 0 1 6.81,71.64 1.38,1.38 0 0 1 7.56,71.15 v 0 A 1.23,1.23 0 0 1 7,70.69 a 1.25,1.25 0 0 1 -0.2,-0.7 1.45,1.45 0 0 1 0.45,-1.13 1.86,1.86 0 0 1 1.29,-0.4 1.89,1.89 0 0 1 1.3,0.4 1.45,1.45 0 0 1 0.42,1.14 1.18,1.18 0 0 1 -0.21,0.7 1.2,1.2 0 0 1 -0.58,0.45 v 0 a 1.38,1.38 0 0 1 0.75,0.49 1.42,1.42 0 0 1 0.27,0.88 1.75,1.75 0 0 1 -0.15,0.74 1.62,1.62 0 0 1 -0.41,0.56 1.84,1.84 0 0 1 -0.63,0.35 2.47,2.47 0 0 1 -0.79,0.12 z m 0,-0.72 A 1.09,1.09 0 0 0 9.27,73.29 1,1 0 0 0 9.58,72.52 0.87,0.87 0 0 0 9.27,71.8 1.13,1.13 0 0 0 8.51,71.54 1.17,1.17 0 0 0 7.75,71.8 a 0.89,0.89 0 0 0 -0.3,0.72 1,1 0 0 0 0.3,0.77 1.13,1.13 0 0 0 0.76,0.28 z m 0,-4.39 a 0.91,0.91 0 0 0 -0.62,0.22 0.79,0.79 0 0 0 -0.26,0.63 0.8,0.8 0 0 0 0.25,0.62 1.07,1.07 0 0 0 1.27,0 A 0.8,0.8 0 0 0 9.39,70 0.78,0.78 0 0 0 9.14,69.37 0.91,0.91 0 0 0 8.51,69.18 Z" />
  <path
     id="path264"
     fill="#ffffff"
     transform="translate(0.14,0.14)"
     d="m 2.26,41.15 a 3.43,3.43 0 0 0 0.56,0 1.49,1.49 0 0 0 0.49,-0.16 1.2,1.2 0 0 0 0.38,-0.29 0.86,0.86 0 0 0 0.2,-0.43 h 0.75 v 5.61 h -1 v -4 H 2.26 Z" />
  <path
     id="path266"
     fill="#ffffff"
     transform="translate(0.14,0.14)"
     d="M 7.58,44.41 A 0.9,0.9 0 0 0 7.82,44.97 0.77,0.77 0 0 0 8.39,45.18 0.84,0.84 0 0 0 9,45 1.23,1.23 0 0 0 9.34,44.51 2.46,2.46 0 0 0 9.51,43.89 c 0,-0.22 0,-0.43 0.06,-0.61 v 0 A 1.17,1.17 0 0 1 9.06,43.78 1.37,1.37 0 0 1 8.36,43.95 1.9,1.9 0 0 1 7.63,43.82 1.64,1.64 0 0 1 7.08,43.44 1.58,1.58 0 0 1 6.72,42.84 2.13,2.13 0 0 1 6.56,42 a 2,2 0 0 1 0.13,-0.75 1.64,1.64 0 0 1 0.37,-0.61 1.73,1.73 0 0 1 0.61,-0.41 2.35,2.35 0 0 1 0.82,-0.14 2,2 0 0 1 1,0.23 1.7,1.7 0 0 1 0.6,0.62 2.89,2.89 0 0 1 0.31,0.94 6.76,6.76 0 0 1 0.07,1.12 5.05,5.05 0 0 1 -0.11,1 2.91,2.91 0 0 1 -0.36,1 1.93,1.93 0 0 1 -0.65,0.68 1.76,1.76 0 0 1 -1,0.27 A 1.9,1.9 0 0 1 7.72,45.84 1.62,1.62 0 0 1 7.2,45.52 1.5,1.5 0 0 1 6.82,45 1.53,1.53 0 0 1 6.66,44.38 Z M 8.45,40.87 A 0.94,0.94 0 0 0 8,41 a 0.86,0.86 0 0 0 -0.31,0.25 1.16,1.16 0 0 0 -0.18,0.37 1.64,1.64 0 0 0 0,0.88 1.06,1.06 0 0 0 0.18,0.37 0.79,0.79 0 0 0 0.31,0.26 0.83,0.83 0 0 0 0.43,0.1 1.06,1.06 0 0 0 0.45,-0.09 0.88,0.88 0 0 0 0.31,-0.26 1,1 0 0 0 0.19,-0.38 1.42,1.42 0 0 0 0,-0.88 A 0.89,0.89 0 0 0 9.19,41.26 0.76,0.76 0 0 0 8.9,41 0.93,0.93 0 0 0 8.45,40.87 Z" />
  <path
     id="path268"
     fill="#ffffff"
     transform="translate(0.14,0.14)"
     d="M 6.78,17.48 H 3 a 2.25,2.25 0 0 1 0.33,-1.22 3.09,3.09 0 0 1 0.9,-0.9 L 4.76,15 A 4.73,4.73 0 0 0 5.3,14.6 2.23,2.23 0 0 0 5.71,14.13 1.16,1.16 0 0 0 5.88,13.55 1.29,1.29 0 0 0 5.88,13.22 0.83,0.83 0 0 0 5.74,12.9 0.85,0.85 0 0 0 5.46,12.65 1.15,1.15 0 0 0 4.97,12.55 0.88,0.88 0 0 0 4.52,12.66 0.84,0.84 0 0 0 4.23,12.96 1.62,1.62 0 0 0 4.07,13.4 4.63,4.63 0 0 0 4.01,13.95 H 3.06 a 2.67,2.67 0 0 1 0.13,-0.86 1.8,1.8 0 0 1 0.37,-0.68 1.69,1.69 0 0 1 0.6,-0.45 2,2 0 0 1 0.84,-0.2 2,2 0 0 1 0.86,0.17 1.49,1.49 0 0 1 0.55,0.43 1.3,1.3 0 0 1 0.3,0.55 2,2 0 0 1 0.09,0.57 1.66,1.66 0 0 1 -0.1,0.61 1.89,1.89 0 0 1 -0.28,0.5 A 2.28,2.28 0 0 1 6,15 5.32,5.32 0 0 1 5.53,15.36 C 5.37,15.48 5.21,15.58 5.05,15.68 L 4.62,16 a 2.27,2.27 0 0 0 -0.36,0.32 0.88,0.88 0 0 0 -0.21,0.34 h 2.73 z" />
  <path
     id="path270"
     fill="#ffffff"
     transform="translate(0.14,0.14)"
     d="m 9.32,11.76 a 1.65,1.65 0 0 1 1,0.28 1.84,1.84 0 0 1 0.6,0.7 3.21,3.21 0 0 1 0.28,0.94 5.85,5.85 0 0 1 0.08,1 5.66,5.66 0 0 1 -0.08,1 3.12,3.12 0 0 1 -0.28,0.94 1.87,1.87 0 0 1 -0.6,0.71 1.65,1.65 0 0 1 -1,0.27 1.67,1.67 0 0 1 -1,-0.27 1.94,1.94 0 0 1 -0.59,-0.71 3.13,3.13 0 0 1 -0.29,-0.94 6.83,6.83 0 0 1 -0.08,-1 7.07,7.07 0 0 1 0.08,-1 3.22,3.22 0 0 1 0.29,-0.94 1.91,1.91 0 0 1 0.59,-0.7 1.67,1.67 0 0 1 1,-0.28 z m 0,5.07 a 0.76,0.76 0 0 0 0.5,-0.17 1.26,1.26 0 0 0 0.32,-0.47 3,3 0 0 0 0.16,-0.68 7.26,7.26 0 0 0 0,-0.83 7.12,7.12 0 0 0 0,-0.83 3.19,3.19 0 0 0 -0.16,-0.69 1.22,1.22 0 0 0 -0.32,-0.46 0.78,0.78 0 0 0 -1,0 1.2,1.2 0 0 0 -0.31,0.46 2.69,2.69 0 0 0 -0.16,0.69 5.45,5.45 0 0 0 0,0.83 5.53,5.53 0 0 0 0,0.83 2.52,2.52 0 0 0 0.16,0.68 1.24,1.24 0 0 0 0.31,0.47 0.76,0.76 0 0 0 0.5,0.17 z" />
  <path
     id="path272"
     fill="#ffffff"
     transform="translate(0.14,0.14)"
     d="m 5.72,578.6 a 1.58,1.58 0 0 1 1,0.28 1.91,1.91 0 0 1 0.59,0.7 3.22,3.22 0 0 1 0.29,0.94 6.83,6.83 0 0 1 0.08,1 7,7 0 0 1 -0.08,1 3.22,3.22 0 0 1 -0.29,0.94 1.91,1.91 0 0 1 -0.59,0.7 1.58,1.58 0 0 1 -1,0.28 1.58,1.58 0 0 1 -1,-0.28 1.91,1.91 0 0 1 -0.59,-0.7 3.22,3.22 0 0 1 -0.29,-0.94 7,7 0 0 1 -0.08,-1 6.83,6.83 0 0 1 0.08,-1 3.22,3.22 0 0 1 0.29,-0.94 1.91,1.91 0 0 1 0.59,-0.7 1.58,1.58 0 0 1 1,-0.28 z m 0,5.07 a 0.78,0.78 0 0 0 0.5,-0.17 1.14,1.14 0 0 0 0.31,-0.47 2.93,2.93 0 0 0 0.17,-0.68 7.39,7.39 0 0 0 0,-0.84 7,7 0 0 0 0,-0.82 3.17,3.17 0 0 0 -0.17,-0.69 1.14,1.14 0 0 0 -0.31,-0.47 0.78,0.78 0 0 0 -0.5,-0.17 0.76,0.76 0 0 0 -0.5,0.17 1.14,1.14 0 0 0 -0.31,0.47 3.17,3.17 0 0 0 -0.17,0.69 7,7 0 0 0 0,0.82 7.39,7.39 0 0 0 0,0.84 2.93,2.93 0 0 0 0.17,0.68 1.14,1.14 0 0 0 0.31,0.47 0.76,0.76 0 0 0 0.5,0.17 z" />
  <text
     xml:space="preserve"
     style="font-style:normal;font-weight:normal;font-size:21.3333px;line-height:1.25;font-family:sans-serif;white-space:pre;inline-size:0;fill:#000000;fill-opacity:1;stroke:none"
     x="367.20853"
     y="520.09662"
     id="text999"><tspan
       id="tspan997"
       x="367.20853"
       y="520.09662" /></text>
  <text
     xml:space="preserve"
     style="font-style:normal;font-weight:normal;font-size:40px;line-height:1.25;font-family:sans-serif;fill:#000000;fill-opacity:1;stroke:none"
     x="357.14816"
     y="518.04523"
     id="text1003"><tspan
       sodipodi:role="line"
       id="tspan1001"
       x="357.14816"
       y="518.04523" /></text>
  <g
     transform="translate(12.565991,83.895191)"
     aria-label="E2D-i3Al by e2d.tw"
     id="text1007"
     style="font-style:normal;font-variant:normal;font-weight:normal;font-stretch:normal;font-size:21.3333px;line-height:23.4375px;font-family:sans-serif;-inkscape-font-specification:'sans-serif, Normal';font-variant-ligatures:normal;font-variant-caps:normal;font-variant-numeric:normal;font-variant-east-asian:normal;fill:#ffffff;fill-opacity:1">
    <path
       d="m 327.3595,474.44077 h 10.8229 v 3.03124 h -6.81249 v 2.89583 h 6.40624 v 3.03125 h -6.40624 v 3.56249 h 7.04165 v 3.03125 H 327.3595 Z"
       style="font-style:normal;font-variant:normal;font-weight:bold;font-stretch:normal;font-size:21.3333px;font-family:sans-serif;-inkscape-font-specification:'sans-serif, Bold';font-variant-ligatures:normal;font-variant-caps:normal;font-variant-numeric:normal;font-variant-east-asian:normal"
       id="path1011" />
    <path
       d="m 346.1303,487.04492 h 6.84374 v 2.94791 h -11.30207 v -2.94791 l 5.67708,-5.01041 q 0.76041,-0.6875 1.125,-1.34375 0.36458,-0.65625 0.36458,-1.36458 0,-1.09375 -0.73958,-1.76042 -0.72917,-0.66666 -1.94792,-0.66666 -0.9375,0 -2.05208,0.40625 -1.11458,0.39583 -2.38541,1.1875 v -3.41667 q 1.35416,-0.44791 2.67708,-0.67708 1.32291,-0.23958 2.59374,-0.23958 2.79167,0 4.33333,1.22916 1.55208,1.22917 1.55208,3.42708 0,1.27083 -0.65625,2.375 -0.65625,1.09375 -2.76041,2.93749 z"
       style="font-style:normal;font-variant:normal;font-weight:bold;font-stretch:normal;font-size:21.3333px;font-family:sans-serif;-inkscape-font-specification:'sans-serif, Bold';font-variant-ligatures:normal;font-variant-caps:normal;font-variant-numeric:normal;font-variant-east-asian:normal"
       id="path1013" />
    <path
       d="m 360.78653,477.47201 v 9.48957 h 1.43749 q 2.45833,0 3.75,-1.21875 1.30208,-1.21874 1.30208,-3.54166 0,-2.31249 -1.29167,-3.52083 -1.29166,-1.20833 -3.76041,-1.20833 z m -4.01041,-3.03124 h 4.22916 q 3.54166,0 5.27082,0.51041 1.73958,0.5 2.97916,1.70833 1.09375,1.05209 1.625,2.42708 0.53125,1.375 0.53125,3.11458 0,1.76042 -0.53125,3.14583 -0.53125,1.375 -1.625,2.42708 -1.25,1.20833 -2.99999,1.71875 -1.75,0.5 -5.24999,0.5 h -4.22916 z"
       style="font-style:normal;font-variant:normal;font-weight:bold;font-stretch:normal;font-size:21.3333px;font-family:sans-serif;-inkscape-font-specification:'sans-serif, Bold';font-variant-ligatures:normal;font-variant-caps:normal;font-variant-numeric:normal;font-variant-east-asian:normal"
       id="path1015" />
    <path
       d="m 374.09901,482.33659 h 6.54165 v 3.03124 h -6.54165 z"
       style="font-style:normal;font-variant:normal;font-weight:bold;font-stretch:normal;font-size:21.3333px;font-family:sans-serif;-inkscape-font-specification:'sans-serif, Bold';font-variant-ligatures:normal;font-variant-caps:normal;font-variant-numeric:normal;font-variant-east-asian:normal"
       id="path1017" />
    <path
       d="m 383.60941,478.32618 h 3.72916 v 11.66665 h -3.72916 z m 0,-4.54166 h 3.72916 v 3.04166 h -3.72916 z"
       style="font-style:normal;font-variant:normal;font-weight:bold;font-stretch:normal;font-size:21.3333px;font-family:sans-serif;-inkscape-font-specification:'sans-serif, Bold';font-variant-ligatures:normal;font-variant-caps:normal;font-variant-numeric:normal;font-variant-east-asian:normal"
       id="path1019" />
    <path
       d="m 399.08855,481.60742 q 1.57291,0.40625 2.38541,1.41667 0.82292,1 0.82292,2.55208 0,2.31249 -1.77083,3.52083 -1.77083,1.19791 -5.16666,1.19791 -1.19792,0 -2.40625,-0.19792 -1.19791,-0.1875 -2.37499,-0.57291 v -3.09375 q 1.125,0.5625 2.22916,0.85417 1.11458,0.28125 2.1875,0.28125 1.59374,0 2.43749,-0.55208 0.85417,-0.55209 0.85417,-1.58334 0,-1.06249 -0.875,-1.60416 -0.86458,-0.55208 -2.5625,-0.55208 h -1.60416 v -2.58333 h 1.6875 q 1.51041,0 2.24999,-0.46875 0.73959,-0.47917 0.73959,-1.44792 0,-0.89583 -0.71875,-1.38541 -0.71875,-0.48958 -2.03125,-0.48958 -0.96875,0 -1.95833,0.21875 -0.98958,0.21875 -1.96875,0.64583 v -2.9375 q 1.1875,-0.33333 2.35417,-0.49999 1.16666,-0.16667 2.29166,-0.16667 3.03124,0 4.53124,1 1.51042,0.98958 1.51042,2.98958 0,1.36458 -0.71875,2.23958 -0.71875,0.86458 -2.125,1.21874 z"
       style="font-style:normal;font-variant:normal;font-weight:bold;font-stretch:normal;font-size:21.3333px;font-family:sans-serif;-inkscape-font-specification:'sans-serif, Bold';font-variant-ligatures:normal;font-variant-caps:normal;font-variant-numeric:normal;font-variant-east-asian:normal"
       id="path1021" />
    <path
       d="m 415.38019,487.1595 h -6.27083 l -0.98958,2.83333 h -4.03124 l 5.76041,-15.55206 h 4.78124 l 5.76041,15.55206 h -4.03125 z m -5.27083,-2.88541 h 4.26041 l -2.12499,-6.18749 z"
       style="font-style:normal;font-variant:normal;font-weight:bold;font-stretch:normal;font-size:21.3333px;font-family:sans-serif;-inkscape-font-specification:'sans-serif, Bold';font-variant-ligatures:normal;font-variant-caps:normal;font-variant-numeric:normal;font-variant-east-asian:normal"
       id="path1023" />
    <path
       d="m 422.27601,473.78452 h 3.72916 v 16.20831 h -3.72916 z"
       style="font-style:normal;font-variant:normal;font-weight:bold;font-stretch:normal;font-size:21.3333px;font-family:sans-serif;-inkscape-font-specification:'sans-serif, Bold';font-variant-ligatures:normal;font-variant-caps:normal;font-variant-numeric:normal;font-variant-east-asian:normal"
       id="path1025" />
    <path
       d="m 443.23431,487.58658 q 1.19792,0 1.82292,-0.875 0.63541,-0.875 0.63541,-2.54166 0,-1.66666 -0.63541,-2.54166 -0.625,-0.875 -1.82292,-0.875 -1.19791,0 -1.84374,0.88541 -0.63542,0.875 -0.63542,2.53125 0,1.65625 0.63542,2.54166 0.64583,0.875 1.84374,0.875 z m -2.47916,-7.55207 q 0.77083,-1.02083 1.70833,-1.5 0.9375,-0.48958 2.15625,-0.48958 2.15624,0 3.54166,1.71875 1.38541,1.70833 1.38541,4.40624 0,2.69791 -1.38541,4.41666 -1.38542,1.70833 -3.54166,1.70833 -1.21875,0 -2.15625,-0.47917 -0.9375,-0.48958 -1.70833,-1.51041 v 1.6875 h -3.72916 v -16.20831 h 3.72916 z"
       style="font-style:normal;font-variant:normal;font-weight:bold;font-stretch:normal;font-size:21.3333px;font-family:sans-serif;-inkscape-font-specification:'sans-serif, Bold';font-variant-ligatures:normal;font-variant-caps:normal;font-variant-numeric:normal;font-variant-east-asian:normal"
       id="path1027" />
    <path
       d="m 450.78638,478.32618 h 3.72916 l 3.13542,7.91665 2.66666,-7.91665 h 3.72916 l -4.90624,12.77081 q -0.73959,1.94792 -1.72917,2.71875 -0.97916,0.78125 -2.59374,0.78125 h -2.15625 v -2.44792 h 1.16666 q 0.94792,0 1.375,-0.30208 0.4375,-0.30208 0.67709,-1.08333 l 0.10416,-0.32292 z"
       style="font-style:normal;font-variant:normal;font-weight:bold;font-stretch:normal;font-size:21.3333px;font-family:sans-serif;-inkscape-font-specification:'sans-serif, Bold';font-variant-ligatures:normal;font-variant-caps:normal;font-variant-numeric:normal;font-variant-east-asian:normal"
       id="path1029" />
    <path
       d="m 485.29674,484.12825 v 1.0625 h -8.71873 q 0.13541,1.3125 0.94791,1.96875 0.8125,0.65625 2.27083,0.65625 1.17708,0 2.40625,-0.34375 1.23958,-0.35417 2.54166,-1.0625 v 2.87499 q -1.32291,0.5 -2.64583,0.75 -1.32291,0.26042 -2.64583,0.26042 -3.16666,0 -4.92707,-1.60416 -1.75,-1.61459 -1.75,-4.52083 0,-2.85416 1.71875,-4.48958 1.72916,-1.63541 4.74999,-1.63541 2.75,0 4.39583,1.65625 1.65624,1.65624 1.65624,4.42707 z m -3.83332,-1.23958 q 0,-1.0625 -0.625,-1.70833 -0.61459,-0.65625 -1.61458,-0.65625 -1.08334,0 -1.76042,0.61458 -0.67708,0.60417 -0.84375,1.75 z"
       style="font-style:normal;font-variant:normal;font-weight:bold;font-stretch:normal;font-size:21.3333px;font-family:sans-serif;-inkscape-font-specification:'sans-serif, Bold';font-variant-ligatures:normal;font-variant-caps:normal;font-variant-numeric:normal;font-variant-east-asian:normal"
       id="path1031" />
    <path
       d="m 492.4634,487.04492 h 6.84374 v 2.94791 h -11.30207 v -2.94791 l 5.67708,-5.01041 q 0.76041,-0.6875 1.125,-1.34375 0.36458,-0.65625 0.36458,-1.36458 0,-1.09375 -0.73958,-1.76042 -0.72917,-0.66666 -1.94792,-0.66666 -0.93749,0 -2.05208,0.40625 -1.11458,0.39583 -2.38541,1.1875 v -3.41667 q 1.35417,-0.44791 2.67708,-0.67708 1.32292,-0.23958 2.59375,-0.23958 2.79166,0 4.33332,1.22916 1.55208,1.22917 1.55208,3.42708 0,1.27083 -0.65625,2.375 -0.65624,1.09375 -2.76041,2.93749 z"
       style="font-style:normal;font-variant:normal;font-weight:bold;font-stretch:normal;font-size:21.3333px;font-family:sans-serif;-inkscape-font-specification:'sans-serif, Bold';font-variant-ligatures:normal;font-variant-caps:normal;font-variant-numeric:normal;font-variant-east-asian:normal"
       id="path1033" />
    <path
       d="m 510.88004,480.03451 v -6.24999 h 3.75 v 16.20831 h -3.75 v -1.6875 q -0.77083,1.03125 -1.69791,1.51041 -0.92708,0.47917 -2.14583,0.47917 -2.15625,0 -3.54166,-1.70833 -1.38542,-1.71875 -1.38542,-4.41666 0,-2.69791 1.38542,-4.40624 1.38541,-1.71875 3.54166,-1.71875 1.20833,0 2.13541,0.48958 0.9375,0.47917 1.70833,1.5 z m -2.45833,7.55207 q 1.19792,0 1.82292,-0.875 0.63541,-0.875 0.63541,-2.54166 0,-1.66666 -0.63541,-2.54166 -0.625,-0.875 -1.82292,-0.875 -1.1875,0 -1.82291,0.875 -0.625,0.875 -0.625,2.54166 0,1.66666 0.625,2.54166 0.63541,0.875 1.82291,0.875 z"
       style="font-style:normal;font-variant:normal;font-weight:bold;font-stretch:normal;font-size:21.3333px;font-family:sans-serif;-inkscape-font-specification:'sans-serif, Bold';font-variant-ligatures:normal;font-variant-caps:normal;font-variant-numeric:normal;font-variant-east-asian:normal"
       id="path1035" />
    <path
       d="m 518.61961,485.96158 h 3.75 v 4.03125 h -3.75 z"
       style="font-style:normal;font-variant:normal;font-weight:bold;font-stretch:normal;font-size:21.3333px;font-family:sans-serif;-inkscape-font-specification:'sans-serif, Bold';font-variant-ligatures:normal;font-variant-caps:normal;font-variant-numeric:normal;font-variant-east-asian:normal"
       id="path1037" />
    <path
       d="m 530.43209,475.01368 v 3.3125 h 3.84374 v 2.66666 h -3.84374 v 4.94791 q 0,0.8125 0.32292,1.10417 0.32291,0.28124 1.28124,0.28124 h 1.91667 v 2.66667 h -3.19791 q -2.20833,0 -3.13541,-0.91667 -0.91667,-0.92708 -0.91667,-3.13541 v -4.94791 h -1.85416 v -2.66666 h 1.85416 v -3.3125 z"
       style="font-style:normal;font-variant:normal;font-weight:bold;font-stretch:normal;font-size:21.3333px;font-family:sans-serif;-inkscape-font-specification:'sans-serif, Bold';font-variant-ligatures:normal;font-variant-caps:normal;font-variant-numeric:normal;font-variant-east-asian:normal"
       id="path1039" />
    <path
       d="m 535.52583,478.32618 h 3.62499 l 1.95833,8.04165 1.96875,-8.04165 h 3.11458 l 1.95833,7.95832 1.96875,-7.95832 h 3.62499 l -3.07291,11.66665 h -4.07291 l -1.96875,-8.02082 -1.95833,8.02082 h -4.07291 z"
       style="font-style:normal;font-variant:normal;font-weight:bold;font-stretch:normal;font-size:21.3333px;font-family:sans-serif;-inkscape-font-specification:'sans-serif, Bold';font-variant-ligatures:normal;font-variant-caps:normal;font-variant-numeric:normal;font-variant-east-asian:normal"
       id="path1041" />
    <g
       style="fill-rule:evenodd;stroke-width:28.222;stroke-linejoin:round"
       id="g1187"
       transform="matrix(0.03779527,0,0,0.03779527,-56.330812,-55.492398)">
      <g
         id="g50">
        <g
           class="Master_Slide"
           id="id2">
          <g
             class="Background"
             id="bg-id2" />
          <g
             class="BackgroundObjects"
             id="bo-id2" />
        </g>
      </g>
      <g
         transform="matrix(0.22489999,0,0,0.22489999,14732.617,12578.965)"
         id="g55"
         class="SlideGroup">
        <g
           id="g57">
          <g
             id="container-id1"
             transform="translate(-8.9742835,-116.66569)">
            <g
               class="Page"
               id="g61">
              <g
                 id="g65"
                 class="com.sun.star.drawing.ClosedBezierShape">
                <rect
                   class="BoundingBox"
                   x="1915"
                   y="2517"
                   width="2630"
                   height="2631"
                   id="rect68"
                   style="fill:none;stroke:none" />
              </g>
              <g
                 id="g1227">
                <path
                   style="font-style:normal;font-variant:normal;font-weight:normal;font-stretch:normal;font-size:21.3333px;line-height:23.4375px;font-family:sans-serif;-inkscape-font-specification:'sans-serif, Normal';font-variant-ligatures:normal;font-variant-caps:normal;font-variant-numeric:normal;font-variant-east-asian:normal;fill:#ffffff;fill-opacity:0.5;fill-rule:evenodd;stroke:none;stroke-width:28.222;stroke-linejoin:round"
                   inkscape:connector-curvature="0"
                   id="path70"
                   d="m 4438.2824,3683.026 c -74,-692 -675,-1205 -1371,-1173 -695,33 -1243,603 -1250,1299 196,-50 392,-100 589,-150 150,-667 1047,-794 1376,-194 -653,165 -1306,331 -1958,497 73,692 674,1207 1370,1173 695,-33 1244,-602 1251,-1298 -197,50 -393,99 -589,149 -150,668 -1048,794 -1377,194 654,-165 1307,-331 1960,-497 -1,-5 -2,-9 -3,-14 z" />
                <g
                   transform="translate(-98.717119,-8.9742835)"
                   class="com.sun.star.drawing.ClosedBezierShape"
                   id="g72">
                  <g
                     id="id4">
                    <rect
                       class="BoundingBox"
                       x="601"
                       y="1"
                       width="5258"
                       height="6460"
                       id="rect75"
                       style="fill:none;stroke:none" />
                    <path
                       d="m 5026,1 c -105,0 -191,85 -191,191 v 1558 2082 c 0,749 -520,1399 -1251,1565 -730,165 -1478,-197 -1802,-873 -323,-676 -135,-1487 454,-1951 588,-465 1419,-460 2002,10 125,102 314,12 313,-150 -2,-255 -4,-510 -6,-765 0,-83 -30,-130 -104,-168 C 3395,957 2116,1176 1310,2036 506,2897 373,4189 983,5196 1595,6203 2803,6680 3938,6362 5074,6045 5858,5011 5858,3832 V 767 C 5858,344 5515,1 5092,1 Z"
                       id="path77"
                       inkscape:connector-curvature="0"
                       style="fill:#265c9c;stroke:none" />
                  </g>
                </g>
              </g>
            </g>
          </g>
        </g>
      </g>
    </g>
  </g>
</svg>
